<?xml version="1.0" encoding="UTF-8"?>
<svg version="1.1" xmlns="http://www.w3.org/2000/svg" width="1280" height="731">
<path d="M0 0 C1.10729965 -0.00902847 2.2145993 -0.01805695 3.35545349 -0.02735901 C5.69275226 -0.04181704 8.03009109 -0.05073713 10.36743164 -0.05444336 C13.8986654 -0.06628908 17.42812116 -0.11547964 20.95898438 -0.16601562 C39.06329177 -0.29591831 55.31662793 1.68939006 69.12109375 14.68359375 C79.80824004 26.19861757 84.36378782 39.76938435 84.6875 55.26953125 C84.7082811 56.10449127 84.72906219 56.93945129 84.75047302 57.79971313 C84.81548844 60.44842865 84.87462866 63.09723734 84.93359375 65.74609375 C84.97682471 67.54948853 85.02044041 69.35287413 85.06445312 71.15625 C85.17112014 75.56110414 85.2725207 79.96605135 85.37109375 84.37109375 C86.03109375 84.04109375 86.69109375 83.71109375 87.37109375 83.37109375 C112.512393 78.82545705 139.05599813 84.15684036 160.36328125 98.1484375 C164.99264026 101.56935345 169.37468928 105.24564988 173.69140625 109.05078125 C176.333826 111.43675287 176.333826 111.43675287 179.37109375 113.37109375 C179.81640625 115.73828125 179.81640625 115.73828125 179.37109375 118.37109375 C177.67578125 120.44140625 177.67578125 120.44140625 175.24609375 122.49609375 C174.33988281 123.26953125 173.43367188 124.04296875 172.5 124.83984375 C168.50980253 128.10092682 164.43544186 131.2566314 160.35742188 134.40673828 C156.02737026 137.77601494 152.15893306 141.40234271 148.37109375 145.37109375 C145.84576305 147.7433741 144.81385559 148.29730011 141.37109375 148.87109375 C137.30609046 148.1935932 136.86481105 146.62678022 134.37109375 143.37109375 C123.52356181 134.51873286 113.44684361 131.5768744 99.375 132.5859375 C90.5121362 133.90593849 83.18959928 137.61797971 76.37109375 143.37109375 C75.71109375 143.37109375 75.05109375 143.37109375 74.37109375 143.37109375 C74.37109375 144.03109375 74.37109375 144.69109375 74.37109375 145.37109375 C73.71109375 145.37109375 73.05109375 145.37109375 72.37109375 145.37109375 C72.09136719 145.95761719 71.81164062 146.54414063 71.5234375 147.1484375 C70.45263794 149.21381021 69.25689709 151.02490389 67.93359375 152.93359375 C61.20965758 163.8152301 61.03206672 177.02203114 62.8046875 189.3984375 C64.48080494 195.98838991 68.27512515 201.04633457 72.37109375 206.37109375 C72.96921875 207.27859375 73.56734375 208.18609375 74.18359375 209.12109375 C82.16893108 217.33458358 93.37421671 221.15759704 104.55859375 221.62109375 C118.31786533 221.36412943 129.05847644 215.22804184 138.51953125 205.55859375 C140.37109375 204.37109375 140.37109375 204.37109375 142.68359375 204.34375 C146.45466154 205.78530644 149.01735975 208.13249368 151.99609375 210.80859375 C156.5148066 214.80127965 156.5148066 214.80127965 161.37109375 218.37109375 C161.37109375 219.03109375 161.37109375 219.69109375 161.37109375 220.37109375 C162.17353516 220.71140625 162.17353516 220.71140625 162.9921875 221.05859375 C166.12779633 222.78858483 168.72979929 225.0488163 171.43359375 227.37109375 C174.33836198 229.84775363 177.18791724 232.24897608 180.37109375 234.37109375 C179.41168101 241.6929278 174.07842876 245.25552595 168.51171875 249.60546875 C160.27969588 255.54399271 151.57325088 260.12316258 142.37109375 264.37109375 C141.47648437 264.79390625 140.581875 265.21671875 139.66015625 265.65234375 C118.93445764 274.74135444 93.66202579 273.69574208 72.74609375 266.05859375 C62.49631579 261.88644841 53.23849494 257.00558051 44.37109375 250.37109375 C43.241875 249.58798828 43.241875 249.58798828 42.08984375 248.7890625 C41.52265625 248.32113281 40.95546875 247.85320312 40.37109375 247.37109375 C40.37109375 246.71109375 40.37109375 246.05109375 40.37109375 245.37109375 C39.71109375 245.37109375 39.05109375 245.37109375 38.37109375 245.37109375 C19.63148148 225.63915985 10.4589978 199.86176419 11.125 172.8359375 C12.05052931 151.90792408 19.11426191 132.60793177 32.63671875 116.46484375 C35.61466452 112.86984615 36.62247578 110.89262979 36.64575195 106.27636719 C36.65528397 105.23808777 36.66481598 104.19980835 36.67463684 103.13006592 C36.67372543 102.00819885 36.67281403 100.88633179 36.671875 99.73046875 C36.67830269 97.99715302 36.67830269 97.99715302 36.68486023 96.2288208 C36.69060824 93.78097184 36.69110034 91.33310579 36.68676758 88.88525391 C36.68361793 85.14976569 36.70702616 81.41507716 36.73242188 77.6796875 C36.73469591 75.30078225 36.73539788 72.92187487 36.734375 70.54296875 C36.74818962 68.87231354 36.74818962 68.87231354 36.76228333 67.16790771 C36.72652615 61.13514839 36.3743119 56.66051906 33.37109375 51.37109375 C25.38542052 44.89622356 12.68842817 47.26810836 3.1328125 47.95703125 C0.09597028 48.41234281 -1.98196178 48.78381382 -4.62890625 50.37109375 C-7.5341542 55.80252527 -8.06814545 60.22802269 -8.04541016 66.31982422 C-8.05828819 67.62104973 -8.05828819 67.62104973 -8.07142639 68.94856262 C-8.09637622 71.79521943 -8.10085425 74.64152536 -8.10546875 77.48828125 C-8.11978458 79.47129373 -8.13554264 81.45429627 -8.15267944 83.43728638 C-8.19444347 88.64166297 -8.21950432 93.84597792 -8.24017334 99.05047607 C-8.27606313 107.4019501 -8.33682342 115.75327256 -8.39866257 124.10458755 C-8.41780431 127.02568774 -8.42949413 129.94674715 -8.44009399 132.8678894 C-8.4502991 134.64483736 -8.46065642 136.42178444 -8.47119141 138.19873047 C-8.47223373 139.01635361 -8.47327606 139.83397675 -8.47434998 140.67637634 C-8.515474 146.2576615 -8.515474 146.2576615 -9.62890625 147.37109375 C-12.25878478 147.48028175 -14.86336391 147.52532178 -17.49414062 147.52880859 C-18.31863708 147.53388931 -19.14313354 147.53897003 -19.99261475 147.54420471 C-21.79053166 147.55493515 -23.58846216 147.56354476 -25.38639832 147.57032394 C-28.23704031 147.58209062 -31.08752927 147.60154135 -33.93811035 147.6234436 C-42.04592747 147.68510825 -50.1537326 147.73897157 -58.26171875 147.77246094 C-63.21672126 147.79348063 -68.17145098 147.82885211 -73.126297 147.87321854 C-75.01118238 147.88733201 -76.8961161 147.89609041 -78.78105164 147.89927292 C-81.43049332 147.90421615 -84.07922063 147.92746434 -86.72851562 147.95458984 C-87.49875061 147.95158371 -88.2689856 147.94857758 -89.06256104 147.94548035 C-94.4952037 148.0275234 -99.75830744 148.83182728 -104.62890625 151.37109375 C-109.94817188 160.18112745 -109.24191838 172.26333582 -107.39453125 182.06640625 C-106.52560376 184.68205534 -105.48747912 186.34109911 -103.62890625 188.37109375 C-100.07722392 189.55498786 -97.11811169 189.56625804 -93.37109375 189.65234375 C-92.31560837 189.67995789 -92.31560837 189.67995789 -91.23880005 189.70812988 C-88.22982892 189.78677615 -85.22064064 189.85475923 -82.21142578 189.92333984 C-80.01453138 189.9749368 -77.81783683 190.03221475 -75.62109375 190.08984375 C-74.3047998 190.12013672 -72.98850586 190.15042969 -71.63232422 190.18164062 C-68.62890625 190.37109375 -68.62890625 190.37109375 -67.62890625 191.37109375 C-67.53586607 192.84463723 -67.5114436 194.32259966 -67.51538086 195.79907227 C-67.51549416 197.21042198 -67.51549416 197.21042198 -67.51560974 198.65028381 C-67.52335167 200.18464333 -67.52335167 200.18464333 -67.53125 201.75 C-67.53266495 202.79179916 -67.5340799 203.83359833 -67.53553772 204.90696716 C-67.54115545 208.24920469 -67.55371095 211.59137632 -67.56640625 214.93359375 C-67.57141897 217.19335841 -67.57598227 219.45312412 -67.58007812 221.71289062 C-67.59113064 227.26564766 -67.60788601 232.818366 -67.62890625 238.37109375 C-69.22066168 238.535455 -70.81257007 238.69833525 -72.40454102 238.8605957 C-73.73425682 238.9968914 -73.73425682 238.9968914 -75.09083557 239.13594055 C-94.50281343 240.93446757 -117.81244838 239.72770146 -133.62890625 227.37109375 C-134.43328125 226.77167969 -135.23765625 226.17226563 -136.06640625 225.5546875 C-147.1494374 216.11045821 -154.38600215 201.82082486 -155.83148193 187.34196472 C-155.92269325 185.24538622 -155.95833732 183.15713893 -155.96484375 181.05859375 C-155.97150055 180.28660645 -155.97815735 179.51461914 -155.98501587 178.71923828 C-155.99507964 177.09230911 -155.99983485 175.46533917 -155.99951172 173.83837891 C-156.00384668 171.40454038 -156.04012447 168.97257674 -156.078125 166.5390625 C-156.2188509 146.87851847 -151.55441447 129.86056337 -137.62890625 115.37109375 C-120.3254402 99.90842196 -99.65338577 100.0597684 -77.81640625 100.24609375 C-75.75586374 100.25614597 -73.69531646 100.26526784 -71.63476562 100.2734375 C-66.63269307 100.29526794 -61.63085338 100.32967372 -56.62890625 100.37109375 C-56.63937988 99.15228516 -56.64985352 97.93347656 -56.66064453 96.67773438 C-56.69733668 92.07799312 -56.71998238 87.47826427 -56.73876953 82.87841797 C-56.74871661 80.90215873 -56.76227906 78.92591377 -56.77978516 76.94970703 C-56.96829946 55.09313718 -57.08948594 32.98750139 -41.4453125 16 C-29.80017697 4.6608122 -16.01460018 0.08186284 0 0 Z " fill="#4162AF" transform="translate(623.62890625,136.62890625)"/>
<path d="M0 0 C2.64241975 2.38597162 2.64241975 2.38597162 5.6796875 4.3203125 C6.125 6.6875 6.125 6.6875 5.6796875 9.3203125 C3.984375 11.390625 3.984375 11.390625 1.5546875 13.4453125 C0.64847656 14.21875 -0.25773438 14.9921875 -1.19140625 15.7890625 C-5.18160372 19.05014557 -9.25596439 22.20585015 -13.33398438 25.35595703 C-17.66403599 28.72523369 -21.53247319 32.35156146 -25.3203125 36.3203125 C-27.8456432 38.69259285 -28.87755066 39.24651886 -32.3203125 39.8203125 C-36.38531579 39.14281195 -36.8265952 37.57599897 -39.3203125 34.3203125 C-50.16784444 25.46795161 -60.24456264 22.52609315 -74.31640625 23.53515625 C-83.17927005 24.85515724 -90.50180697 28.56719846 -97.3203125 34.3203125 C-97.9803125 34.3203125 -98.6403125 34.3203125 -99.3203125 34.3203125 C-99.3203125 34.9803125 -99.3203125 35.6403125 -99.3203125 36.3203125 C-99.9803125 36.3203125 -100.6403125 36.3203125 -101.3203125 36.3203125 C-101.60003906 36.90683594 -101.87976563 37.49335938 -102.16796875 38.09765625 C-103.23876831 40.16302896 -104.43450916 41.97412264 -105.7578125 43.8828125 C-112.48174867 54.76444885 -112.65933953 67.97124989 -110.88671875 80.34765625 C-109.21060131 86.93760866 -105.4162811 91.99555332 -101.3203125 97.3203125 C-100.7221875 98.2278125 -100.1240625 99.1353125 -99.5078125 100.0703125 C-91.52247517 108.28380233 -80.31718954 112.10681579 -69.1328125 112.5703125 C-55.37354092 112.31334818 -44.63292981 106.17726059 -35.171875 96.5078125 C-33.3203125 95.3203125 -33.3203125 95.3203125 -31.0078125 95.29296875 C-27.23674471 96.73452519 -24.6740465 99.08171243 -21.6953125 101.7578125 C-17.17659965 105.7504984 -17.17659965 105.7504984 -12.3203125 109.3203125 C-12.3203125 109.9803125 -12.3203125 110.6403125 -12.3203125 111.3203125 C-11.78535156 111.5471875 -11.25039063 111.7740625 -10.69921875 112.0078125 C-7.56360992 113.73780358 -4.96160696 115.99803505 -2.2578125 118.3203125 C0.64695573 120.79697238 3.49651099 123.19819483 6.6796875 125.3203125 C5.72027476 132.64214655 0.38702251 136.2047447 -5.1796875 140.5546875 C-13.41171037 146.49321146 -22.11815537 151.07238133 -31.3203125 155.3203125 C-32.21492187 155.743125 -33.10953125 156.1659375 -34.03125 156.6015625 C-54.75694861 165.69057319 -80.02938046 164.64496083 -100.9453125 157.0078125 C-111.19509046 152.83566716 -120.45291131 147.95479926 -129.3203125 141.3203125 C-130.073125 140.79824219 -130.8259375 140.27617187 -131.6015625 139.73828125 C-132.45234375 139.03638672 -132.45234375 139.03638672 -133.3203125 138.3203125 C-133.3203125 137.6603125 -133.3203125 137.0003125 -133.3203125 136.3203125 C-133.9803125 136.3203125 -134.6403125 136.3203125 -135.3203125 136.3203125 C-154.05992477 116.5883786 -163.23240845 90.81098294 -162.56640625 63.78515625 C-161.64087694 42.85714283 -154.57714434 23.55715052 -141.0546875 7.4140625 C-139.18832267 5.23456767 -139.18832267 5.23456767 -137.3203125 2.3203125 C-136.4540625 1.9078125 -135.5878125 1.4953125 -134.6953125 1.0703125 C-130.2762531 -1.22105164 -126.97950605 -4.34314829 -123.3203125 -7.6796875 C-119.82548443 -10.81439277 -116.73562804 -13.0119634 -112.3203125 -14.6796875 C-110.31905502 -15.50999645 -108.31910355 -16.34345859 -106.3203125 -17.1796875 C-104.32152145 -18.01591641 -102.32156998 -18.84937855 -100.3203125 -19.6796875 C-99.02867187 -20.22109375 -99.02867187 -20.22109375 -97.7109375 -20.7734375 C-95.49624699 -21.61299338 -93.38229545 -22.18552321 -91.0703125 -22.6796875 C-89.8328125 -23.0096875 -88.5953125 -23.3396875 -87.3203125 -23.6796875 C-86.9903125 -24.3396875 -86.6603125 -24.9996875 -86.3203125 -25.6796875 C-53.98895594 -30.81164886 -24.36225661 -21.47502082 0 0 Z " fill="#72B362" transform="translate(797.3203125,245.6796875)"/>
<path d="M0 0 C1.1008493 -0.00143509 1.1008493 -0.00143509 2.22393799 -0.00289917 C3.74271737 -0.00356888 5.26149984 -0.00180098 6.78027344 0.00244141 C9.11659951 0.00790243 11.45274148 0.00240813 13.7890625 -0.00390625 C15.27604209 -0.00324707 16.76302157 -0.00196926 18.25 0 C18.9477655 -0.00202423 19.64553101 -0.00404846 20.36444092 -0.00613403 C25.2131091 0.0177966 25.2131091 0.0177966 26.328125 1.1328125 C26.44264973 3.79836445 26.49296885 6.43906215 26.50170898 9.10571289 C26.508396 9.94156921 26.51508301 10.77742554 26.52197266 11.63861084 C26.5360604 13.46108075 26.54794246 15.2835687 26.55792046 17.10606575 C26.5742968 19.99423301 26.597537 22.8822683 26.62281799 25.77037048 C26.6936597 33.98478631 26.75353205 42.19925846 26.80493164 50.41381836 C26.8368245 55.43360074 26.87813593 60.45323587 26.92512703 65.47289848 C26.94109728 67.38373586 26.9534417 69.29460722 26.96203423 71.20549202 C26.97426474 73.88852888 26.99844975 76.57122382 27.02514648 79.25415039 C27.02573563 80.03733139 27.02632477 80.82051239 27.02693176 81.62742615 C27.09412755 86.7549872 27.77831939 91.22919778 29.328125 96.1328125 C33.00558095 98.62020227 36.89112987 98.39030058 41.23828125 98.3984375 C42.55763672 98.40101563 43.87699219 98.40359375 45.23632812 98.40625 C45.91832275 98.40206055 46.60031738 98.39787109 47.30297852 98.39355469 C49.38782733 98.3828269 51.47181803 98.39348227 53.55664062 98.40625 C55.53374023 98.40238281 55.53374023 98.40238281 57.55078125 98.3984375 C59.35687866 98.39505371 59.35687866 98.39505371 61.19946289 98.39160156 C64.18860602 98.14435289 65.86365964 97.79124327 68.328125 96.1328125 C70.87297371 91.67499928 71.22090613 86.33003446 71.953125 81.3203125 C72.0871875 80.43666016 72.22125 79.55300781 72.359375 78.64257812 C72.6876821 76.4734062 73.01042376 74.30355872 73.328125 72.1328125 C77.16834765 72.98107297 79.89667803 74.57469217 83.265625 76.6328125 C90.1942909 80.74582268 97.43109443 83.90594712 104.86694336 86.98632812 C110.14159308 89.17190403 115.25135785 91.51786515 120.328125 94.1328125 C117.96800104 111.64741661 112.74269051 126.11434881 98.328125 137.1328125 C97.39033203 137.85597656 97.39033203 137.85597656 96.43359375 138.59375 C86.31038978 145.62671276 73.69724445 147.27036265 61.6796875 147.37109375 C60.28440323 147.38320137 60.28440323 147.38320137 58.8609314 147.39555359 C56.89249507 147.40934974 54.92403528 147.42009176 52.95556641 147.42797852 C50.97176951 147.43943156 48.98800177 147.45977576 47.00439453 147.48950195 C25.40097347 147.81256063 9.01659128 145.05747659 -7.19140625 129.6953125 C-23.93987617 112.39295617 -21.83857945 86.05865062 -21.76953125 63.6328125 C-21.76766042 61.81722045 -21.76623967 60.00162789 -21.76524353 58.18603516 C-21.7614706 53.46470688 -21.75168657 48.74341058 -21.74053955 44.02209473 C-21.73021148 39.18140088 -21.72572178 34.34070174 -21.72070312 29.5 C-21.71005825 20.04425697 -21.69304668 10.58853742 -21.671875 1.1328125 C-14.44154423 0.52314389 -7.25776604 -0.02181432 0 0 Z " fill="#4161AE" transform="translate(588.671875,326.8671875)"/>
<path d="M0 0 C4.95469182 4.14924931 8.54314449 8.40489392 11.56640625 14.1171875 C7.91095387 17.19186707 4.17343124 19.66343774 0.00390625 21.9921875 C-1.66865234 22.94738281 -1.66865234 22.94738281 -3.375 23.921875 C-6.43359375 25.1171875 -6.43359375 25.1171875 -8.7265625 24.4375 C-10.75548381 22.8682199 -12.07539552 21.29030466 -13.43359375 19.1171875 C-13.43359375 18.4571875 -13.43359375 17.7971875 -13.43359375 17.1171875 C-14.74436482 16.4071865 -16.08706715 15.75678764 -17.43359375 15.1171875 C-18.50609375 14.5809375 -19.57859375 14.0446875 -20.68359375 13.4921875 C-28.5495219 10.61979801 -39.05843826 10.89712729 -46.93359375 13.5546875 C-53.55258217 16.72465835 -58.64274883 22.40377564 -61.43359375 29.1796875 C-63.86342059 38.23198356 -63.85509548 49.44123966 -59.75 57.9375 C-54.55537172 66.53869461 -48.92734876 70.01442009 -39.359375 72.69921875 C-32.58760552 74.16895371 -25.62319579 73.12356563 -19.43359375 70.1171875 C-16.63238681 67.91198204 -14.09275445 65.58807243 -11.5625 63.078125 C-9.43359375 61.1171875 -9.43359375 61.1171875 -6.43359375 60.1171875 C-4.64013672 60.69042969 -4.64013672 60.69042969 -2.67578125 61.6640625 C-1.96808594 62.0146875 -1.26039063 62.3653125 -0.53125 62.7265625 C0.56896484 63.29117188 0.56896484 63.29117188 1.69140625 63.8671875 C2.43261719 64.228125 3.17382812 64.5890625 3.9375 64.9609375 C4.64261719 65.31671875 5.34773437 65.6725 6.07421875 66.0390625 C6.7202002 66.36487305 7.36618164 66.69068359 8.03173828 67.02636719 C9.56640625 68.1171875 9.56640625 68.1171875 10.56640625 71.1171875 C3.75456114 83.04253152 -6.16866408 90.29076118 -19.2109375 94.26953125 C-33.61347675 97.59964761 -48.89779096 95.48137634 -61.74609375 88.3671875 C-73.68217902 80.64839005 -81.69579425 69.1994448 -85.02636719 55.38623047 C-88.25696791 37.38550918 -84.50625938 20.88021456 -74.24609375 5.9296875 C-53.45462587 -14.86178038 -23.75752572 -18.38062182 0 0 Z " fill="#4261AD" transform="translate(723.43359375,503.8828125)"/>
<path d="M0 0 C0.33 -1.65 0.66 -3.3 1 -5 C4.31248187 -5.02888146 7.62493167 -5.04675799 10.9375 -5.0625 C11.88302734 -5.07087891 12.82855469 -5.07925781 13.80273438 -5.08789062 C15.15141602 -5.09272461 15.15141602 -5.09272461 16.52734375 -5.09765625 C17.77632446 -5.10551147 17.77632446 -5.10551147 19.05053711 -5.11352539 C21 -5 21 -5 22 -4 C22.0996392 -1.76612794 22.12799795 0.47093859 22.12939453 2.70703125 C22.13202301 3.75822647 22.13202301 3.75822647 22.13470459 4.83065796 C22.13912266 7.15796349 22.13618529 9.48519364 22.1328125 11.8125 C22.13348555 13.42293309 22.13445559 15.03336609 22.13571167 16.64379883 C22.13718858 20.02328455 22.13503431 23.4027439 22.13037109 26.78222656 C22.1246738 31.12376505 22.12795285 35.46524173 22.13394356 39.80677795 C22.13754936 43.13350901 22.1364105 46.4602253 22.13381577 49.78695679 C22.13314655 51.38821418 22.13397474 52.9894729 22.13629532 54.59072876 C22.13882216 56.82484511 22.13498085 59.05886 22.12939453 61.29296875 C22.12859894 62.5668042 22.12780334 63.84063965 22.12698364 65.15307617 C22 68 22 68 21 69 C19.5112814 69.08669432 18.018555 69.10703494 16.52734375 69.09765625 C15.62822266 69.09443359 14.72910156 69.09121094 13.80273438 69.08789062 C12.38444336 69.07532227 12.38444336 69.07532227 10.9375 69.0625 C9.5134082 69.05573242 9.5134082 69.05573242 8.06054688 69.04882812 C5.70696935 69.0370011 3.35351523 69.02052025 1 69 C0.67 67.35 0.34 65.7 0 64 C-0.928125 64.763125 -1.85625 65.52625 -2.8125 66.3125 C-10.19668256 71.51701421 -18.31083324 72.65112512 -27.1484375 71.56640625 C-37.852888 69.44017978 -45.51355575 62.77841383 -51.75 54.05078125 C-57.47665583 44.65548654 -58.51697789 33.05073305 -56.50390625 22.3671875 C-55.80258828 20.15625289 -54.96960359 18.10664877 -54 16 C-53.64808594 15.16855469 -53.29617188 14.33710937 -52.93359375 13.48046875 C-48.40053877 3.50176357 -42.12056071 -1.89752815 -32 -6 C-20.70462967 -9.57419426 -9.56170291 -6.37446861 0 0 Z M-31.5859375 18.94140625 C-35.35230074 24.85220175 -36.86808449 29.98768117 -36 37 C-34.90668796 39.89321877 -33.56446928 42.31106843 -32 45 C-31.34 45 -30.68 45 -30 45 C-29.67 45.99 -29.34 46.98 -29 48 C-23.7036437 50.97920042 -19.03407649 51.78465097 -13 51 C-7.52912282 49.17637427 -4.1530609 45.70518685 -1 41 C1.31466772 35.56556274 1.42753286 30.66875367 0 25 C-2.97361888 19.37136425 -6.43520861 15.93265142 -12.4375 13.75 C-19.83932887 12.19172024 -26.52278107 12.74340441 -31.5859375 18.94140625 Z " fill="#4161AE" transform="translate(795,528)"/>
<path d="M0 0 C0.495 0.495 0.495 0.495 1 1 C1.66 -0.32 2.32 -1.64 3 -3 C9.6 -3 16.2 -3 23 -3 C23.97851742 0.9140697 24.08667146 3.86785214 24.02172852 7.87988281 C24.01212097 8.56321686 24.00251343 9.2465509 23.99261475 9.95059204 C23.95972381 12.20154447 23.91935417 14.45229675 23.87890625 16.703125 C23.85459543 18.26681825 23.83075236 19.83051884 23.80735779 21.39422607 C23.7446125 25.50423558 23.67551894 29.61411474 23.60510254 33.72399902 C23.53433265 37.92010578 23.46956752 42.11630474 23.40429688 46.3125 C23.27540771 54.54177082 23.13925687 62.77089809 23 71 C16.4 71 9.8 71 3 71 C2.34 69.68 1.68 68.36 1 67 C0.33097656 67.433125 -0.33804688 67.86625 -1.02734375 68.3125 C-10.53414999 73.82517154 -20.05480526 74.99183155 -30.8046875 72.296875 C-33.05451895 71.3782587 -34.96676434 70.32638482 -37 69 C-37.68191406 68.59910156 -38.36382812 68.19820312 -39.06640625 67.78515625 C-46.61002163 62.84673632 -52.06400052 54.3333367 -54.56640625 45.70703125 C-56.82259867 31.62107317 -54.95390402 19.37841813 -46.94921875 7.48046875 C-44.06699875 3.81271384 -41.00483492 1.35000691 -37 -1 C-36.03707031 -1.61681641 -36.03707031 -1.61681641 -35.0546875 -2.24609375 C-24.0145108 -8.31189425 -10.51560503 -5.79974599 0 0 Z M-28.55859375 19.359375 C-33.2384138 24.74741708 -34.47237 29.45681551 -34.31640625 36.43359375 C-33.65395801 41.80678506 -31.39879372 45.63707278 -27.5625 49.375 C-22.13382504 52.81757436 -17.3899327 53.99421967 -11 53 C-5.8402093 51.15073101 -1.04348347 48.42248386 1.41015625 43.2890625 C3.11221414 36.68372527 3.1966542 29.5705905 0.3125 23.375 C-4.47210573 18.4610806 -8.22324309 16.02392351 -15 15 C-20.09219149 15 -24.62135225 15.92538993 -28.55859375 19.359375 Z " fill="#222425" transform="translate(455,526)"/>
<path d="M0 0 C10.42864997 6.24168269 17.61489046 14.603674 20.69921875 26.578125 C21.19689212 29.89272629 21.23362482 33.09424258 21.2265625 36.4453125 C21.23042969 38.29189453 21.23042969 38.29189453 21.234375 40.17578125 C21.1015625 43.2578125 21.1015625 43.2578125 20.1015625 45.2578125 C2.9415625 45.2578125 -14.2184375 45.2578125 -31.8984375 45.2578125 C-28.85375712 50.3322798 -26.49642545 52.81861732 -21.0234375 55.0078125 C-14.32043089 55.79640151 -9.97101706 55.41088266 -3.8984375 52.2578125 C-3.1765625 51.6803125 -2.4546875 51.1028125 -1.7109375 50.5078125 C0.1015625 49.2578125 0.1015625 49.2578125 1.86328125 49.4921875 C4.68116611 50.45607133 7.12948634 51.8017698 9.7265625 53.2578125 C10.68820312 53.7940625 11.64984375 54.3303125 12.640625 54.8828125 C13.45273437 55.3365625 14.26484375 55.7903125 15.1015625 56.2578125 C15.7615625 56.5878125 16.4215625 56.9178125 17.1015625 57.2578125 C16.50000111 63.13859363 13.29248562 65.49885839 8.94921875 69.1640625 C-1.51110481 76.85505485 -14.52731402 76.59825417 -26.95703125 74.8203125 C-36.80079686 72.3003085 -45.16091083 66.43252548 -50.52734375 57.8359375 C-56.07830305 47.39823624 -56.74714948 34.26625773 -53.8359375 22.8203125 C-50.01308779 12.28504122 -42.51148416 4.29089962 -32.5859375 -0.6171875 C-22.64111483 -4.48253367 -9.69928486 -4.76631524 0 0 Z M-29.8359375 22.2578125 C-32.18170191 25.06306822 -32.18170191 25.06306822 -31.8984375 28.2578125 C-21.6684375 28.2578125 -11.4384375 28.2578125 -0.8984375 28.2578125 C-1.82863825 23.08971182 -1.82863825 23.08971182 -5.2734375 20.0078125 C-5.87929688 19.50765625 -6.48515625 19.0075 -7.109375 18.4921875 C-14.33861626 13.50432672 -24.30907815 16.0168084 -29.8359375 22.2578125 Z " fill="#232527" transform="translate(611.8984375,523.7421875)"/>
<path d="M0 0 C1.97713065 1.40779983 3.83690772 2.74996565 5.55078125 4.46875 C5.55078125 5.12875 5.55078125 5.78875 5.55078125 6.46875 C6.21078125 6.46875 6.87078125 6.46875 7.55078125 6.46875 C15.2007218 16.64461432 17.62711939 27.90312794 16.55078125 40.46875 C16.05578125 41.45875 16.05578125 41.45875 15.55078125 42.46875 C-1.60921875 42.46875 -18.76921875 42.46875 -36.44921875 42.46875 C-33.17247883 47.9299832 -30.46509097 50.46345926 -24.44921875 52.46875 C-18.385653 53.01144435 -13.70043806 52.84453384 -8.44921875 49.46875 C-7.76859375 48.89125 -7.08796875 48.31375 -6.38671875 47.71875 C-4.44921875 46.46875 -4.44921875 46.46875 -2.22265625 46.63671875 C1.30527309 47.69509755 3.83946403 49.43783808 6.86328125 51.53125 C8.46623047 52.63146484 8.46623047 52.63146484 10.1015625 53.75390625 C10.90980469 54.31980469 11.71804688 54.88570312 12.55078125 55.46875 C10.37060877 61.85588848 6.0273392 65.57399747 0.1640625 68.76953125 C-10.6147551 73.6689938 -24.32104492 74.68470408 -35.63671875 70.84375 C-45.98322139 66.27911648 -53.31782945 58.96230348 -57.6875 48.58203125 C-61.26253888 38.66359004 -60.93268189 25.42714684 -56.703125 15.7890625 C-51.35278178 5.88842738 -43.42439824 -1.36467712 -32.6015625 -4.87109375 C-21.23379675 -7.25170392 -9.95835697 -6.22595843 0 0 Z M-34.83984375 19 C-36.33930227 21.15415167 -37.44921875 22.79507566 -37.44921875 25.46875 C-26.88921875 25.46875 -16.32921875 25.46875 -5.44921875 25.46875 C-6.36889081 20.3209836 -6.36889081 20.3209836 -9.76171875 17.21875 C-10.35597656 16.71859375 -10.95023438 16.2184375 -11.5625 15.703125 C-18.74709072 11.00264743 -29.15808273 12.74367887 -34.83984375 19 Z " fill="#4261AE" transform="translate(932.44921875,526.53125)"/>
<path d="M0 0 C0.89460938 -0.00128906 1.78921875 -0.00257813 2.7109375 -0.00390625 C3.65195312 -0.00003906 4.59296875 0.00382812 5.5625 0.0078125 C6.97402344 0.00201172 6.97402344 0.00201172 8.4140625 -0.00390625 C9.75597656 -0.00197266 9.75597656 -0.00197266 11.125 0 C11.95128906 0.00112793 12.77757812 0.00225586 13.62890625 0.00341797 C15.5625 0.1328125 15.5625 0.1328125 16.5625 1.1328125 C16.68549166 2.81990597 16.74035258 4.51202153 16.76782227 6.20336914 C16.78776749 7.28441422 16.80771271 8.36545929 16.82826233 9.47926331 C16.84497482 10.6552861 16.86168732 11.8313089 16.87890625 13.04296875 C16.89968735 14.24014023 16.92046844 15.43731171 16.94187927 16.67076111 C17.00750279 20.51221737 17.06631903 24.35374451 17.125 28.1953125 C17.16817305 30.79232517 17.21178693 33.38933056 17.25585938 35.98632812 C17.36319716 42.36841367 17.46493931 48.75057043 17.5625 55.1328125 C24.27471561 46.94869137 24.27471561 46.94869137 29.8828125 38.01953125 C33.71235591 31.23079521 33.71235591 31.23079521 37.5625 29.1328125 C45.43745988 27.55340259 53.62634284 28.33199416 61.5625 29.1328125 C60.80421681 33.90323963 58.94006128 36.44024431 55.75 39.9453125 C51.26101346 45.05096336 47.05900375 50.30381709 43 55.7578125 C42.48783936 56.44464111 41.97567871 57.13146973 41.44799805 57.83911133 C39.42201835 60.57096457 37.44989549 63.30171927 35.5625 66.1328125 C36.20316406 66.89464844 36.84382812 67.65648437 37.50390625 68.44140625 C41.61348165 73.34073346 45.70952106 78.25062341 49.6875 83.2578125 C50.24695313 83.96164062 50.80640625 84.66546875 51.3828125 85.390625 C52.5625 87.1328125 52.5625 87.1328125 52.5625 89.1328125 C53.2225 89.1328125 53.8825 89.1328125 54.5625 89.1328125 C56.5078125 91.43359375 56.5078125 91.43359375 58.6875 94.4453125 C59.77417969 95.92451172 59.77417969 95.92451172 60.8828125 97.43359375 C62.5625 100.1328125 62.5625 100.1328125 62.5625 103.1328125 C58.87608455 103.36678492 55.19158844 103.50774961 51.5 103.6328125 C50.46166016 103.69984375 49.42332031 103.766875 48.35351562 103.8359375 C40.76105046 104.02876201 40.76105046 104.02876201 37.41479492 101.52734375 C35.60844207 99.48434335 34.07337824 97.40107186 32.5625 95.1328125 C31.75683594 94.1015625 30.95117188 93.0703125 30.12109375 92.0078125 C29.42113281 91.0590625 28.72117187 90.1103125 28 89.1328125 C27.2471875 88.11703125 26.494375 87.10125 25.71875 86.0546875 C24.65140625 84.60835937 24.65140625 84.60835937 23.5625 83.1328125 C22.37655591 81.54831343 21.1892944 79.96479844 20 78.3828125 C19.1875 77.29947917 18.375 76.21614583 17.5625 75.1328125 C16.76369775 78.62835857 16.45325961 81.81630633 16.5 85.3984375 C16.50773438 86.37039063 16.51546875 87.34234375 16.5234375 88.34375 C16.53632812 89.34664062 16.54921875 90.34953125 16.5625 91.3828125 C16.58788172 93.38796842 16.60895798 95.39318511 16.625 97.3984375 C16.63660156 98.28305664 16.64820313 99.16767578 16.66015625 100.07910156 C16.5625 102.1328125 16.5625 102.1328125 15.5625 103.1328125 C14.08597336 103.23162047 12.60482764 103.26360495 11.125 103.265625 C9.78308594 103.26755859 9.78308594 103.26755859 8.4140625 103.26953125 C7.00253906 103.26373047 7.00253906 103.26373047 5.5625 103.2578125 C4.15097656 103.26361328 4.15097656 103.26361328 2.7109375 103.26953125 C1.81632812 103.26824219 0.92171875 103.26695312 0 103.265625 C-0.82628906 103.26449707 -1.65257812 103.26336914 -2.50390625 103.26220703 C-4.4375 103.1328125 -4.4375 103.1328125 -5.4375 102.1328125 C-5.53818417 99.00257766 -5.5736416 95.8943633 -5.56689453 92.76367188 C-5.56864685 91.78002151 -5.57039917 90.79637115 -5.57220459 89.78291321 C-5.57662505 86.51411197 -5.57368443 83.24536434 -5.5703125 79.9765625 C-5.57098548 77.71594228 -5.57195546 75.45532212 -5.57321167 73.19470215 C-5.57468891 68.44994418 -5.57253326 63.70520501 -5.56787109 58.96044922 C-5.5621738 52.86342626 -5.56545266 46.76644731 -5.57144356 40.66942596 C-5.57504848 35.99932521 -5.5739109 31.32923497 -5.57131577 26.65913391 C-5.5706463 24.41034439 -5.57147558 22.16155393 -5.57379532 19.9127655 C-5.57632071 16.77580212 -5.57248285 13.63891109 -5.56689453 10.50195312 C-5.56891876 9.56269485 -5.57094299 8.62343658 -5.57302856 7.65571594 C-5.54764911 0.00757284 -5.54764911 0.00757284 0 0 Z " fill="#222325" transform="translate(496.4375,493.8671875)"/>
<path d="M0 0 C0.69771011 0.00359528 1.39542023 0.00719055 2.11427307 0.01089478 C3.2117688 0.01067574 3.2117688 0.01067574 4.33143616 0.01045227 C6.76094989 0.0111515 9.19038789 0.01894432 11.61988831 0.02676392 C13.29997719 0.02862806 14.98006662 0.03005198 16.66015625 0.03105164 C21.09071849 0.03487709 25.52124815 0.04470761 29.95179749 0.05575562 C34.46941182 0.06596914 38.98703139 0.07054913 43.50465393 0.07559204 C52.37511328 0.08632986 61.24553987 0.10392688 70.11598206 0.12442017 C70.11598206 7.38442017 70.11598206 14.64442017 70.11598206 22.12442017 C61.20598206 22.12442017 52.29598206 22.12442017 43.11598206 22.12442017 C43.15151184 24.54262085 43.18704163 26.96082153 43.22364807 29.45230103 C43.34002487 37.42304591 43.45086463 45.39386077 43.55894566 53.36472225 C43.6246761 58.19962216 43.69229818 63.03448047 43.76417542 67.86929321 C43.8334127 72.53113636 43.89776989 77.19302321 43.95867729 81.85498238 C43.98283851 83.63768543 44.00878786 85.42036514 44.03651619 87.20301628 C44.07491685 89.69102192 44.10708055 92.1790331 44.13771057 94.66714478 C44.15065659 95.41160858 44.1636026 96.15607239 44.17694092 96.9230957 C44.19503571 98.65689517 44.16115734 100.39111488 44.11598206 102.12442017 C43.78598206 102.45442017 43.45598206 102.78442017 43.11598206 103.12442017 C35.85598206 103.12442017 28.59598206 103.12442017 21.11598206 103.12442017 C21.11598206 76.39442017 21.11598206 49.66442017 21.11598206 22.12442017 C12.53598206 22.12442017 3.95598206 22.12442017 -4.88401794 22.12442017 C-6.47339351 20.5350446 -6.01382937 18.88542171 -6.01683044 16.68692017 C-6.01811951 15.79231079 -6.01940857 14.89770142 -6.02073669 13.97598267 C-6.01493591 12.56445923 -6.01493591 12.56445923 -6.00901794 11.12442017 C-6.01288513 10.18340454 -6.01675232 9.24238892 -6.02073669 8.27285767 C-6.01944763 7.37824829 -6.01815857 6.48363892 -6.01683044 5.56192017 C-6.01513855 4.32248657 -6.01513855 4.32248657 -6.01341248 3.05801392 C-5.75219022 -0.84553382 -3.33947482 0.00725869 0 0 Z " fill="#212325" transform="translate(337.88401794433594,493.8755798339844)"/>
<path d="M0 0 C1.62538055 3.2507611 1.14277895 6.80735693 1.125 10.375 C1.13080078 11.52742187 1.13080078 11.52742187 1.13671875 12.703125 C1.13542969 13.44820312 1.13414062 14.19328125 1.1328125 14.9609375 C1.13168457 15.63946777 1.13055664 16.31799805 1.12939453 17.01708984 C0.99266834 19.11235417 0.56770955 20.98229148 0 23 C-0.79664063 23.09796875 -1.59328125 23.1959375 -2.4140625 23.296875 C-10.93117938 24.41211126 -10.93117938 24.41211126 -18 29 C-20.91299013 34.49130368 -21.40241238 38.81118052 -21.2578125 44.9609375 C-21.25119598 45.7921109 -21.24457947 46.6232843 -21.23776245 47.47964478 C-21.2145116 50.11182069 -21.17078426 52.74312809 -21.125 55.375 C-21.089957 58.02818698 -21.05921756 60.68133005 -21.03366089 63.33462524 C-21.01665069 64.98067852 -20.99348179 66.6266816 -20.96365356 68.27255249 C-20.93841458 70.18157327 -20.96395379 72.0911527 -21 74 C-22.58937556 75.58937556 -24.23899846 75.12981143 -26.4375 75.1328125 C-27.77941406 75.13474609 -27.77941406 75.13474609 -29.1484375 75.13671875 C-30.55996094 75.13091797 -30.55996094 75.13091797 -32 75.125 C-33.41152344 75.13080078 -33.41152344 75.13080078 -34.8515625 75.13671875 C-35.74617187 75.13542969 -36.64078125 75.13414062 -37.5625 75.1328125 C-38.38878906 75.13168457 -39.21507812 75.13055664 -40.06640625 75.12939453 C-42 75 -42 75 -43 74 C-43.0996392 71.76612794 -43.12799795 69.52906141 -43.12939453 67.29296875 C-43.13114685 66.59217194 -43.13289917 65.89137512 -43.13470459 65.16934204 C-43.13912266 62.84203651 -43.13618529 60.51480636 -43.1328125 58.1875 C-43.13348555 56.57706691 -43.13445559 54.96663391 -43.13571167 53.35620117 C-43.13718858 49.97671545 -43.13503431 46.5972561 -43.13037109 43.21777344 C-43.1246738 38.87623495 -43.12795285 34.53475827 -43.13394356 30.19322205 C-43.13754936 26.86649099 -43.1364105 23.5397747 -43.13381577 20.21304321 C-43.13314655 18.61178582 -43.13397474 17.0105271 -43.13629532 15.40927124 C-43.13882216 13.17515489 -43.13498085 10.94114 -43.12939453 8.70703125 C-43.12859894 7.4331958 -43.12780334 6.15936035 -43.12698364 4.84692383 C-43 2 -43 2 -42 1 C-40.5112814 0.91330568 -39.018555 0.89296506 -37.52734375 0.90234375 C-36.62822266 0.90556641 -35.72910156 0.90878906 -34.80273438 0.91210938 C-33.85720703 0.92048828 -32.91167969 0.92886719 -31.9375 0.9375 C-30.98810547 0.94201172 -30.03871094 0.94652344 -29.06054688 0.95117188 C-26.70696935 0.9629989 -24.35351523 0.97947975 -22 1 C-21.67 2.98 -21.34 4.96 -21 7 C-19.9790625 6.1028125 -19.9790625 6.1028125 -18.9375 5.1875 C-12.7226646 0.55943108 -7.52352301 -0.46062386 0 0 Z " fill="#3E5FAC" transform="translate(872,522)"/>
<path d="M0 0 C1.1008493 -0.00143509 1.1008493 -0.00143509 2.22393799 -0.00289917 C3.74271737 -0.00356888 5.26149984 -0.00180098 6.78027344 0.00244141 C9.11659951 0.00790243 11.45274148 0.00240813 13.7890625 -0.00390625 C15.27604209 -0.00324707 16.76302157 -0.00196926 18.25 0 C18.9477655 -0.00202423 19.64553101 -0.00404846 20.36444092 -0.00613403 C25.2131091 0.0177966 25.2131091 0.0177966 26.328125 1.1328125 C26.41680799 4.08986571 26.44332796 7.02346306 26.42578125 9.98046875 C26.4243663 10.8668956 26.42295135 11.75332245 26.42149353 12.66661072 C26.41587715 15.50954504 26.40332191 18.35240181 26.390625 21.1953125 C26.38561211 23.11783741 26.38104884 25.04036354 26.37695312 26.96289062 C26.36590241 31.68622799 26.34862683 36.40950708 26.328125 41.1328125 C25.338125 40.8028125 24.348125 40.4728125 23.328125 40.1328125 C23.328125 27.9228125 23.328125 15.7128125 23.328125 3.1328125 C9.468125 3.1328125 -4.391875 3.1328125 -18.671875 3.1328125 C-18.671875 33.1628125 -18.671875 63.1928125 -18.671875 94.1328125 C-19.001875 94.1328125 -19.331875 94.1328125 -19.671875 94.1328125 C-19.73246094 93.06160156 -19.79304687 91.99039063 -19.85546875 90.88671875 C-19.93986037 89.48956859 -20.02450906 88.09243393 -20.109375 86.6953125 C-20.14869141 85.98826172 -20.18800781 85.28121094 -20.22851562 84.55273438 C-20.14811938 81.04590831 -20.14811938 81.04590831 -21.671875 78.1328125 C-21.76684208 75.72932964 -21.79746362 73.35470268 -21.78540039 70.95092773 C-21.78554642 70.19975677 -21.78569244 69.44858582 -21.7858429 68.6746521 C-21.78514363 66.18020791 -21.77735064 63.68583747 -21.76953125 61.19140625 C-21.76766712 59.46647686 -21.76624319 57.74154693 -21.76524353 56.01661682 C-21.76141797 51.46768747 -21.75158738 46.91878983 -21.74053955 42.36987305 C-21.73032624 37.73161244 -21.72574608 33.09334673 -21.72070312 28.45507812 C-21.70996514 19.34764228 -21.69288827 10.24023002 -21.671875 1.1328125 C-14.44154423 0.52314389 -7.25776604 -0.02181432 0 0 Z " fill="#4361A9" transform="translate(588.671875,326.8671875)"/>
<path d="M0 0 C3 3 3 3 3.328125 5.8828125 C3.30234375 6.95273437 3.2765625 8.02265625 3.25 9.125 C3.23453125 10.20007813 3.2190625 11.27515625 3.203125 12.3828125 C3 15 3 15 2 16 C-0.51361776 16.10039078 -2.99977666 16.13617473 -5.51391602 16.12939453 C-6.30100449 16.13114685 -7.08809296 16.13289917 -7.89903259 16.13470459 C-10.51734586 16.13912736 -13.13559222 16.13618167 -15.75390625 16.1328125 C-17.57177239 16.13348589 -19.38963844 16.13445621 -21.20750427 16.13571167 C-25.02840019 16.1371896 -28.8492728 16.1350328 -32.67016602 16.13037109 C-37.55357779 16.12470201 -42.43693427 16.1279342 -47.32034397 16.13394356 C-51.08056549 16.13757082 -54.84077409 16.13640017 -58.60099602 16.13381577 C-60.40021712 16.13315101 -62.19943942 16.13395909 -63.99865913 16.13629532 C-66.52591134 16.13885422 -69.05307648 16.13493468 -71.58032227 16.12939453 C-72.68496323 16.13243088 -72.68496323 16.13243088 -73.81192017 16.13552856 C-78.6193876 16.11614906 -83.23887637 15.6742121 -88 15 C-87.67 14.34 -87.34 13.68 -87 13 C-58.29 13 -29.58 13 0 13 C0 8.71 0 4.42 0 0 Z " fill="#3F5C9D" transform="translate(612,268)"/>
<path d="M0 0 C0.69771011 0.00359528 1.39542023 0.00719055 2.11427307 0.01089478 C3.2117688 0.01067574 3.2117688 0.01067574 4.33143616 0.01045227 C6.76094989 0.0111515 9.19038789 0.01894432 11.61988831 0.02676392 C13.29997719 0.02862806 14.98006662 0.03005198 16.66015625 0.03105164 C21.09071849 0.03487709 25.52124815 0.04470761 29.95179749 0.05575562 C34.46941182 0.06596914 38.98703139 0.07054913 43.50465393 0.07559204 C52.37511328 0.08632986 61.24553987 0.10392688 70.11598206 0.12442017 C70.11598206 7.38442017 70.11598206 14.64442017 70.11598206 22.12442017 C60.87598206 22.12442017 51.63598206 22.12442017 42.11598206 22.12442017 C42.11598206 21.46442017 42.11598206 20.80442017 42.11598206 20.12442017 C50.69598206 20.12442017 59.27598206 20.12442017 68.11598206 20.12442017 C68.11598206 14.18442017 68.11598206 8.24442017 68.11598206 2.12442017 C44.35598206 2.12442017 20.59598206 2.12442017 -3.88401794 2.12442017 C-3.88401794 8.06442017 -3.88401794 14.00442017 -3.88401794 20.12442017 C-4.54401794 20.12442017 -5.20401794 20.12442017 -5.88401794 20.12442017 C-5.91290309 16.97860593 -5.93077717 13.83282548 -5.94651794 10.68692017 C-5.95489685 9.78908813 -5.96327576 8.8912561 -5.97190857 7.96621704 C-5.97513123 7.11221313 -5.97835388 6.25820923 -5.98167419 5.37832642 C-5.98952942 4.1921875 -5.98952942 4.1921875 -5.99754333 2.98208618 C-5.76271366 -0.86053532 -3.2506871 0.0070657 0 0 Z " fill="#323436" transform="translate(337.88401794433594,493.8755798339844)"/>
<path d="M0 0 C8.58 0 17.16 0 26 0 C26 26.73 26 53.46 26 81 C35.9 80.505 35.9 80.505 46 80 C46 80.99 46 81.98 46 83 C38.74 83 31.48 83 24 83 C24 56.27 24 29.54 24 2 C17.4 2 10.8 2 4 2 C2.68 1.34 1.36 0.68 0 0 Z " fill="#333436" transform="translate(335,514)"/>
<path d="M0 0 C3.47914941 -0.02887814 6.95826831 -0.04675687 10.4375 -0.0625 C11.92733398 -0.07506836 11.92733398 -0.07506836 13.44726562 -0.08789062 C14.39150391 -0.09111328 15.33574219 -0.09433594 16.30859375 -0.09765625 C17.62041626 -0.10551147 17.62041626 -0.10551147 18.95874023 -0.11352539 C21 0 21 0 22 1 C22.09304018 2.47354348 22.11746265 3.95150591 22.11352539 5.42797852 C22.11344986 6.36887833 22.11337433 7.30977814 22.11329651 8.27919006 C22.10813522 9.30209641 22.10297394 10.32500275 22.09765625 11.37890625 C22.0962413 12.42070541 22.09482635 13.46250458 22.09336853 14.53587341 C22.0877508 17.87811094 22.0751953 21.22028257 22.0625 24.5625 C22.05748728 26.82226466 22.05292398 29.08203037 22.04882812 31.34179688 C22.03777561 36.89455391 22.02102024 42.44727225 22 48 C20.42000238 48.1647275 18.83980244 48.32751509 17.25952148 48.48950195 C16.37957016 48.58036575 15.49961884 48.67122955 14.59300232 48.7648468 C11.06795843 49.08452463 7.60312792 49.16923051 4.0625 49.1875 C2.79535156 49.20167969 1.52820313 49.21585937 0.22265625 49.23046875 C-3 49 -3 49 -6 47 C-3.48322887 45.74161443 -1.58706712 45.79181027 1.2265625 45.68359375 C2.7734375 45.62075195 2.7734375 45.62075195 4.3515625 45.55664062 C5.43179688 45.51732422 6.51203125 45.47800781 7.625 45.4375 C8.71296875 45.39431641 9.8009375 45.35113281 10.921875 45.30664062 C13.6144517 45.2003547 16.30712253 45.09831943 19 45 C18.99214478 43.19813232 18.99214478 43.19813232 18.98413086 41.35986328 C18.96606347 36.91325624 18.9545616 32.46665247 18.94506836 28.02001953 C18.94003213 26.09358169 18.93320288 24.16714769 18.92456055 22.24072266 C18.91246392 19.47557632 18.90676467 16.71048042 18.90234375 13.9453125 C18.89718246 13.0806839 18.89202118 12.2160553 18.88670349 11.32522583 C18.88612829 5.22774341 18.88612829 5.22774341 20 3 C13.4 3 6.8 3 0 3 C0 2.01 0 1.02 0 0 Z " fill="#3759A2" transform="translate(534,327)"/>
<path d="M0 0 C2.33632608 0.00546103 4.67246804 -0.00003328 7.00878906 -0.00634766 C8.49576865 -0.00568848 9.98274813 -0.00441067 11.46972656 -0.00244141 C12.16749207 -0.00446564 12.86525757 -0.00648987 13.58416748 -0.00857544 C18.43283567 0.0153552 18.43283567 0.0153552 19.54785156 1.13037109 C19.63653455 4.0874243 19.66305452 7.02102166 19.64550781 9.97802734 C19.64409286 10.86445419 19.64267792 11.75088104 19.64122009 12.66416931 C19.63560372 15.50710364 19.62304848 18.3499604 19.61035156 21.19287109 C19.60533867 23.115396 19.6007754 25.03792214 19.59667969 26.96044922 C19.58562897 31.68378659 19.56835339 36.40706567 19.54785156 41.13037109 C18.55785156 40.80037109 17.56785156 40.47037109 16.54785156 40.13037109 C16.54785156 27.92037109 16.54785156 15.71037109 16.54785156 3.13037109 C10.93785156 3.13037109 5.32785156 3.13037109 -0.45214844 3.13037109 C-5.14361454 2.99069959 -9.82649811 2.83408403 -14.51464844 2.63037109 C-16.2597168 2.55882812 -16.2597168 2.55882812 -18.04003906 2.48583984 C-20.84422004 2.37044145 -23.64823017 2.25195722 -26.45214844 2.13037109 C-26.45214844 3.78037109 -26.45214844 5.43037109 -26.45214844 7.13037109 C-27.11214844 6.47037109 -27.77214844 5.81037109 -28.45214844 5.13037109 C-28.45214844 3.81037109 -28.45214844 2.49037109 -28.45214844 1.13037109 C-18.94841068 0.21261023 -9.54013577 -0.02664842 0 0 Z " fill="#344FAA" transform="translate(595.4521484375,326.86962890625)"/>
<path d="M0 0 C1.12057297 -0.00428513 2.24114594 -0.00857025 3.39567566 -0.01298523 C5.75995205 -0.01871236 8.12424606 -0.01924075 10.48852539 -0.01489258 C14.08315509 -0.01173833 17.6769566 -0.03519343 21.27148438 -0.06054688 C23.57682189 -0.06282077 25.88216159 -0.06352295 28.1875 -0.0625 C29.78329643 -0.07631462 29.78329643 -0.07631462 31.41133118 -0.09040833 C39.06575604 -0.04356112 47.67428749 0.31347492 53.41796875 5.98828125 C54.03671875 6.75140625 54.65546875 7.51453125 55.29296875 8.30078125 C53.52185031 7.82266948 51.75108392 7.34325345 49.98046875 6.86328125 C48.99433594 6.59644531 48.00820313 6.32960937 46.9921875 6.0546875 C45.07779349 5.519987 43.1786326 4.92933587 41.29296875 4.30078125 C39.59141067 4.20814568 37.88645024 4.17286554 36.18237305 4.17138672 C35.14086594 4.16823456 34.09935883 4.1650824 33.02629089 4.16183472 C31.90128677 4.16385895 30.77628265 4.16588318 29.6171875 4.16796875 C28.459272 4.16701202 27.30135651 4.1660553 26.10835266 4.16506958 C23.65630031 4.16438854 21.20424616 4.16623755 18.75219727 4.17041016 C15.00598063 4.17574492 11.25988469 4.17047007 7.51367188 4.1640625 C5.13151015 4.16472358 2.74934851 4.16600536 0.3671875 4.16796875 C-0.75174393 4.16594452 -1.87067535 4.16392029 -3.02351379 4.16183472 C-8.02450435 4.17683421 -12.79539387 4.22520903 -17.70703125 5.30078125 C-18.03703125 4.31078125 -18.36703125 3.32078125 -18.70703125 2.30078125 C-12.44331409 0.08066666 -6.6062438 -0.00562742 0 0 Z " fill="#405E9D" transform="translate(623.70703125,136.69921875)"/>
<path d="M0 0 C3.31248187 -0.02888146 6.62493167 -0.04675799 9.9375 -0.0625 C10.88302734 -0.07087891 11.82855469 -0.07925781 12.80273438 -0.08789062 C14.15141602 -0.09272461 14.15141602 -0.09272461 15.52734375 -0.09765625 C16.77632446 -0.10551147 16.77632446 -0.10551147 18.05053711 -0.11352539 C20 0 20 0 21 1 C21.09391296 2.90243762 21.11743658 4.80838459 21.11352539 6.71313477 C21.11344986 7.9343251 21.11337433 9.15551544 21.11329651 10.41371155 C21.10818911 11.75627686 21.10297311 13.09884175 21.09765625 14.44140625 C21.09579199 15.80761158 21.09436813 17.17381757 21.09336853 18.5400238 C21.08954394 22.14201695 21.07971417 25.74397 21.06866455 29.34594727 C21.05844916 33.01903745 21.05387064 36.69213409 21.04882812 40.36523438 C21.03809184 47.57684123 21.02101614 54.788415 21 62 C20.67 62 20.34 62 20 62 C19.1437099 58.23397779 18.81478065 54.65044034 18.68359375 50.79296875 C18.64161865 49.57689941 18.59964355 48.36083008 18.55639648 47.10791016 C18.51716064 45.8141748 18.4779248 44.52043945 18.4375 43.1875 C18.41632111 42.52836609 18.39514221 41.86923218 18.37332153 41.19012451 C17.96626149 28.45895071 17.89326261 15.73732864 18 3 C13.05 3 8.1 3 3 3 C2.67 4.98 2.34 6.96 2 9 C1.34 9 0.68 9 0 9 C0 8.01 0 7.02 0 6 C-0.66 5.67 -1.32 5.34 -2 5 C-1.34 3.35 -0.68 1.7 0 0 Z " fill="#3050A9" transform="translate(796,523)"/>
<path d="M0 0 C0.33 0 0.66 0 1 0 C1 22.11 1 44.22 1 67 C-2 64 -2 64 -2.36076355 61.77900696 C-2.35410172 60.91518906 -2.34743988 60.05137115 -2.34057617 59.16137695 C-2.34034958 58.1805867 -2.34012299 57.19979645 -2.33988953 56.18928528 C-2.32440567 55.13295395 -2.30892181 54.07662262 -2.29296875 52.98828125 C-2.28872391 51.90491989 -2.28447906 50.82155853 -2.28010559 49.70536804 C-2.26329569 46.24082723 -2.22563848 42.77686538 -2.1875 39.3125 C-2.17245619 36.96550318 -2.15876726 34.61849726 -2.14648438 32.27148438 C-2.11338461 26.51412495 -2.06316205 20.75710383 -2 15 C-1.34 15 -0.68 15 0 15 C0 10.05 0 5.1 0 0 Z " fill="#3050AE" transform="translate(614,204)"/>
<path d="M0 0 C2.10835499 3.16253249 2.24933861 3.90555554 2.24291992 7.515625 C2.24599655 8.42666992 2.24907318 9.33771484 2.25224304 10.27636719 C2.24505753 11.25766602 2.23787201 12.23896484 2.23046875 13.25 C2.23001053 14.2596582 2.22955231 15.26931641 2.2290802 16.30957031 C2.22605863 18.44467341 2.21817519 20.57977432 2.20581055 22.71484375 C2.18757213 25.98705843 2.18530077 29.25898984 2.18554688 32.53125 C2.1806309 34.60416912 2.17480224 36.67708632 2.16796875 38.75 C2.16685593 39.73129883 2.1657431 40.71259766 2.16459656 41.72363281 C2.15821671 42.63467773 2.15183685 43.54572266 2.14526367 44.484375 C2.14145187 45.28584961 2.13764008 46.08732422 2.13371277 46.91308594 C2 49 2 49 1 52 C1.99 52.33 2.98 52.66 4 53 C2.35 53.66 0.7 54.32 -1 55 C-1.0252899 47.48861406 -1.04284141 39.97723903 -1.05493164 32.46582031 C-1.05997017 29.90884999 -1.06680107 27.35188257 -1.07543945 24.79492188 C-1.08752602 21.12629483 -1.09323301 17.45770577 -1.09765625 13.7890625 C-1.10539818 12.0655809 -1.10539818 12.0655809 -1.11329651 10.30728149 C-1.11337204 9.2463327 -1.11344757 8.18538391 -1.11352539 7.09228516 C-1.115746 6.15518707 -1.11796661 5.21808899 -1.12025452 4.25259399 C-1 2 -1 2 0 0 Z " fill="#44639D" transform="translate(662,193)"/>
<path d="M0 0 C0.66 0.33 1.32 0.66 2 1 C2.02698189 2.62490954 2.04638757 4.24994633 2.0625 5.875 C2.07410156 6.77992188 2.08570313 7.68484375 2.09765625 8.6171875 C2 11 2 11 1 13 C-16.49 13 -33.98 13 -52 13 C-52.33 13.66 -52.66 14.32 -53 15 C-53 13.68 -53 12.36 -53 11 C-35.84 11 -18.68 11 -1 11 C-0.67 7.37 -0.34 3.74 0 0 Z " fill="#46474A" transform="translate(631,556)"/>
<path d="M0 0 C1.02100044 3.06300131 1.09010909 5.00711934 1.02172852 8.20581055 C1.00163223 9.26668381 0.98153595 10.32755707 0.96083069 11.420578 C0.93379562 12.56440445 0.90676056 13.7082309 0.87890625 14.88671875 C0.85529526 16.05886429 0.83168427 17.23100983 0.80735779 18.43867493 C0.73068611 22.18840541 0.64667644 25.9379312 0.5625 29.6875 C0.50928285 32.22720347 0.45654243 34.76691698 0.40429688 37.30664062 C0.27506616 43.53788751 0.13980781 49.76898194 0 56 C0.66 56.33 1.32 56.66 2 57 C0.68 57.66 -0.64 58.32 -2 59 C-2 39.86 -2 20.72 -2 1 C-1.34 0.67 -0.68 0.34 0 0 Z " fill="#313334" transform="translate(512,496)"/>
<path d="M0 0 C8.58 0 17.16 0 26 0 C26 0.33 26 0.66 26 1 C17.75 1 9.5 1 1 1 C1 31.03 1 61.06 1 92 C0.67 92 0.34 92 0 92 C-0.06058594 90.95199219 -0.12117187 89.90398437 -0.18359375 88.82421875 C-0.26801738 87.44529952 -0.35266447 86.06639395 -0.4375 84.6875 C-0.47681641 83.99720703 -0.51613281 83.30691406 -0.55664062 82.59570312 C-0.74927415 79.52838465 -1.02322717 76.93031848 -2 74 C-1.34 74 -0.68 74 0 74 C0 49.58 0 25.16 0 0 Z " fill="#405C97" transform="translate(569,329)"/>
<path d="M0 0 C1.62538055 3.2507611 1.14277895 6.80735693 1.125 10.375 C1.13080078 11.52742187 1.13080078 11.52742187 1.13671875 12.703125 C1.13542969 13.44820312 1.13414062 14.19328125 1.1328125 14.9609375 C1.13168457 15.63946777 1.13055664 16.31799805 1.12939453 17.01708984 C1 19 1 19 0 23 C-3.63 23.33 -7.26 23.66 -11 24 C-11 23.34 -11 22.68 -11 22 C-8.36 21.34 -5.72 20.68 -3 20 C-2.505 11.09 -2.505 11.09 -2 2 C-7.28 3.32 -12.56 4.64 -18 6 C-18 5.34 -18 4.68 -18 4 C-11.71546794 0.67202085 -7.11341265 -0.45164525 0 0 Z " fill="#2C48AD" transform="translate(872,522)"/>
<path d="M0 0 C0.99 0 1.98 0 3 0 C2.731875 0.639375 2.46375 1.27875 2.1875 1.9375 C1.795625 2.948125 1.40375 3.95875 1 5 C0.62101563 5.86915039 0.62101563 5.86915039 0.234375 6.75585938 C-2.59419911 13.94515192 -2.3397451 20.93072627 -2.1875 28.5625 C-2.17396484 29.85736328 -2.16042969 31.15222656 -2.14648438 32.48632812 C-2.1113737 35.65799214 -2.06219347 38.8287709 -2 42 C-2.99 41.67 -3.98 41.34 -5 41 C-8.45874929 30.62375212 -6.99568761 14.99744061 -3 5 C-1.58203125 2.1875 -1.58203125 2.1875 0 0 Z " fill="#425DA2" transform="translate(644,519)"/>
<path d="M0 0 C4.2002771 0.90523213 7.57966461 2.90282094 11.25 5.0625 C11.8996875 5.43955078 12.549375 5.81660156 13.21875 6.20507812 C14.81505091 7.13234115 16.40787529 8.06558456 18 9 C17.67 9.66 17.34 10.32 17 11 C14.29110713 10.47905906 12.41281974 9.68843496 9.9375 8.375 C7.03548317 6.60562267 7.03548317 6.60562267 4 8 C2.82206199 10.15278517 2.82206199 10.15278517 1.9375 12.75 C1.61652344 13.61109375 1.29554688 14.4721875 0.96484375 15.359375 C0.64644531 16.23078125 0.32804688 17.1021875 0 18 C-0.66149738 19.66872509 -1.32663084 21.33602999 -2 23 C-2.96804074 19.89484695 -2.98121797 17.6488104 -2.44140625 14.453125 C-2.30283203 13.60878906 -2.16425781 12.76445312 -2.02148438 11.89453125 C-1.87001953 11.02183594 -1.71855469 10.14914062 -1.5625 9.25 C-1.34110352 7.91775391 -1.34110352 7.91775391 -1.11523438 6.55859375 C-0.75064986 4.37108664 -0.37867934 2.18510358 0 0 Z " fill="#3C5FAE" transform="translate(662,399)"/>
<path d="M0 0 C4.57269026 2.28634513 5.9952155 3.99362066 9 8 C9 8.66 9 9.32 9 10 C5.125 8.25 5.125 8.25 4 6 C3.20119775 9.49554607 2.89075961 12.68349383 2.9375 16.265625 C2.94523438 17.23757813 2.95296875 18.20953125 2.9609375 19.2109375 C2.97382812 20.21382812 2.98671875 21.21671875 3 22.25 C3.02538172 24.25515592 3.04645798 26.26037261 3.0625 28.265625 C3.07410156 29.15024414 3.08570313 30.03486328 3.09765625 30.94628906 C3 33 3 33 2 34 C0.33382885 34.04063832 -1.33388095 34.042721 -3 34 C-1.515 33.505 -1.515 33.505 0 33 C0 22.11 0 11.22 0 0 Z " fill="#2B2C2E" transform="translate(510,563)"/>
<path d="M0 0 C4.45915047 0.71726645 8.55733234 2.18471092 12.75 3.8125 C13.43449219 4.06064453 14.11898437 4.30878906 14.82421875 4.56445312 C16.796875 5.33203125 16.796875 5.33203125 20 7 C21.2839434 10.09014783 20.91552175 12.30128969 20.07421875 15.4765625 C19.85443359 16.311875 19.63464844 17.1471875 19.40820312 18.0078125 C19.05145508 19.30332031 19.05145508 19.30332031 18.6875 20.625 C18.46126953 21.49640625 18.23503906 22.3678125 18.00195312 23.265625 C16.26422784 29.73577216 16.26422784 29.73577216 14 32 C13.34 31.34 12.68 30.68 12 30 C12.48906524 27.38868802 13.07007251 24.97589494 13.8125 22.4375 C14.00392578 21.73947266 14.19535156 21.04144531 14.39257812 20.32226562 C15.83946471 15.16053529 15.83946471 15.16053529 17 14 C17 12.35 17 10.7 17 9 C8.585 5.535 8.585 5.535 0 2 C0 1.34 0 0.68 0 0 Z " fill="#4760A2" transform="translate(688,413)"/>
<path d="M0 0 C0.89291748 -0.00064453 1.78583496 -0.00128906 2.70581055 -0.00195312 C13.70049727 0.08141891 24.62717735 1.1138138 35.5625 2.1875 C35.5625 2.5175 35.5625 2.8475 35.5625 3.1875 C28.79983723 3.23819411 22.03722345 3.27323108 15.27441406 3.29736328 C12.97361418 3.3074232 10.6728271 3.32107262 8.37207031 3.33837891 C5.0657231 3.36262735 1.75954488 3.37398323 -1.546875 3.3828125 C-3.0908194 3.39829636 -3.0908194 3.39829636 -4.66595459 3.41409302 C-5.62664856 3.41424408 -6.58734253 3.41439514 -7.57714844 3.41455078 C-8.42098083 3.418992 -9.26481323 3.42343323 -10.13421631 3.42800903 C-12.64291467 3.16605059 -14.27078958 2.44674304 -16.4375 1.1875 C-10.92417459 0.2624454 -5.58652876 -0.00424387 0 0 Z " fill="#3954A5" transform="translate(532.4375,236.8125)"/>
<path d="M0 0 C0 0.66 0 1.32 0 2 C-0.66 2 -1.32 2 -2 2 C-2 2.66 -2 3.32 -2 4 C-2.61488281 4.25394531 -3.22976563 4.50789062 -3.86328125 4.76953125 C-5.07564453 5.28580078 -5.07564453 5.28580078 -6.3125 5.8125 C-7.51326172 6.31716797 -7.51326172 6.31716797 -8.73828125 6.83203125 C-11.00331585 8.00171233 -12.23612665 9.19889449 -14 11 C-15.43507059 11.83309341 -16.89590665 12.62283307 -18.375 13.375 C-22.26190294 15.47518143 -24.97941283 17.74094542 -28 21 C-30.29827584 23.04183664 -32.64448636 25.02462689 -35 27 C-35.33 26.01 -35.66 25.02 -36 24 C-33.29346881 19.6695501 -30.46112461 18.2305623 -26 16 C-23.22833153 13.78266522 -20.62216148 11.39094884 -18 9 C-14.54302871 5.89925057 -11.46172255 3.48724085 -7 2 C-6.113125 1.62875 -5.22625 1.2575 -4.3125 0.875 C-2 0 -2 0 0 0 Z " fill="#6DA383" transform="translate(692,229)"/>
<path d="M0 0 C0 3 0 3 0 3 Z M-2 3 C-1.34 4.32 -0.68 5.64 0 7 C0.7206665 6.99476318 1.44133301 6.98952637 2.18383789 6.98413086 C5.47671625 6.96323125 8.76958059 6.95029869 12.0625 6.9375 C13.7630957 6.92493164 13.7630957 6.92493164 15.49804688 6.91210938 C27.02729538 6.87849641 27.02729538 6.87849641 32 8 C32.495 8.99 32.495 8.99 33 10 C21.45 10 9.9 10 -2 10 C-3 6 -3 6 -2 3 Z " fill="#3D5B9D" transform="translate(895,545)"/>
<path d="M0 0 C0 0.99 0 1.98 0 3 C-0.59014893 3.01981934 -1.18029785 3.03963867 -1.78833008 3.06005859 C-4.46350096 3.15534659 -7.13789498 3.26500939 -9.8125 3.375 C-11.2056543 3.42140625 -11.2056543 3.42140625 -12.62695312 3.46875 C-13.51962891 3.50742188 -14.41230469 3.54609375 -15.33203125 3.5859375 C-16.15421143 3.6173584 -16.9763916 3.6487793 -17.82348633 3.68115234 C-20.28952937 3.88373622 -20.28952937 3.88373622 -23 6 C-26.1875 5.625 -26.1875 5.625 -29 5 C-26.58104138 1.18460785 -26.58104138 1.18460785 -24.08203125 0.390625 C-23.33308594 0.34421875 -22.58414063 0.2978125 -21.8125 0.25 C-20.94496094 0.19457031 -20.07742188 0.13914063 -19.18359375 0.08203125 C-12.78810962 -0.08276037 -6.39677707 -0.07142803 0 0 Z " fill="#6CA668" transform="translate(737,219)"/>
<path d="M0 0 C0.33 0 0.66 0 1 0 C1 11.22 1 22.44 1 34 C2.32 34.66 3.64 35.32 5 36 C2.18976756 37.87348829 1.0415889 38.31886073 -2.125 38.875 C-6.43765728 39.74880638 -10.114859 41.26070137 -14.0546875 43.1953125 C-16 44 -16 44 -19 44 C-19 43.34 -19 42.68 -19 42 C-17.35 42 -15.7 42 -14 42 C-14 41.34 -14 40.68 -14 40 C-12.68 40 -11.36 40 -10 40 C-10 39.34 -10 38.68 -10 38 C-8.35 38 -6.7 38 -5 38 C-4.67 37.01 -4.34 36.02 -4 35 C-2.68 35.33 -1.36 35.66 0 36 C0 24.12 0 12.24 0 0 Z " fill="#4D6D9E" transform="translate(706,186)"/>
<path d="M0 0 C1.41678795 0.03753891 1.41678795 0.03753891 2.86219788 0.07583618 C5.85774322 0.15753724 8.85257925 0.25431818 11.84765625 0.3515625 C13.88734149 0.4098531 15.92705523 0.46715522 17.96679688 0.5234375 C22.94831934 0.66304138 27.92926173 0.81616457 32.91015625 0.9765625 C32.91015625 1.3065625 32.91015625 1.6365625 32.91015625 1.9765625 C31.99427734 1.99638184 31.07839844 2.01620117 30.13476562 2.03662109 C26.65294567 2.11591267 23.1714591 2.20262191 19.68994141 2.29394531 C18.19879989 2.33163105 16.70758588 2.36657402 15.21630859 2.3984375 C4.66393884 2.62644279 -5.64182803 3.47160966 -16.08984375 4.9765625 C-16.41984375 3.9865625 -16.74984375 2.9965625 -17.08984375 1.9765625 C-11.23649288 -0.06635805 -6.16206972 -0.21935715 0 0 Z " fill="#395596" transform="translate(622.08984375,137.0234375)"/>
<path d="M0 0 C0 0.66 0 1.32 0 2 C-0.95777344 1.83886719 -1.91554688 1.67773438 -2.90234375 1.51171875 C-7.45656829 0.86438872 -11.96893764 0.81610845 -16.5625 0.8125 C-17.38685547 0.80025391 -18.21121094 0.78800781 -19.06054688 0.77539062 C-23.78157663 0.76406921 -27.56131799 1.17992456 -32 3 C-32 2.34 -32 1.68 -32 1 C-21.23649153 -3.83171522 -10.88046043 -5.12021667 0 0 Z " fill="#32569D" transform="translate(788,524)"/>
<path d="M0 0 C2.33954855 0.28647533 4.67212073 0.63049535 7 1 C11.64010651 1.23665388 16.14409441 1.02662746 20.75 0.4375 C24.06717516 0.01922222 26.7445763 0.05487699 30 1 C24.01867036 4.20428373 18.66315097 4.18274061 12 4.1875 C10.64648438 4.20586914 10.64648438 4.20586914 9.265625 4.22460938 C8.39421875 4.22654297 7.5228125 4.22847656 6.625 4.23046875 C5.83351563 4.23457764 5.04203125 4.23868652 4.2265625 4.24291992 C1.76216729 3.97405224 0.13458906 3.2296427 -2 2 C-1.34 1.34 -0.68 0.68 0 0 Z " fill="#38569E" transform="translate(678,595)"/>
<path d="M0 0 C2 1 2 1 3.125 4.25 C3.85463482 7.37700635 4.19234975 9.82622905 4 13 C4.66 13 5.32 13 6 13 C7.76171875 15.3359375 7.76171875 15.3359375 9.6875 18.375 C10.65236328 19.87160156 10.65236328 19.87160156 11.63671875 21.3984375 C12.08660156 22.25695312 12.53648437 23.11546875 13 24 C12.67 24.66 12.34 25.32 12 26 C6.70448377 24.23482792 4.60556869 18.70723022 2 14 C-0.15276517 9.24355264 -1.82725111 5.14952585 0 0 Z " fill="#445DA6" transform="translate(471,329)"/>
<path d="M0 0 C0.33 0.99 0.66 1.98 1 3 C12.55 3 24.1 3 36 3 C35.67 3.66 35.34 4.32 35 5 C23.12 5 11.24 5 -1 5 C-0.67 3.35 -0.34 1.7 0 0 Z " fill="#363839" transform="translate(578,549)"/>
<path d="M0 0 C0.66 0 1.32 0 2 0 C2 8.91 2 17.82 2 27 C1.01 26.67 0.02 26.34 -1 26 C-1.09744014 17.27369392 -1.16711095 8.66996704 0 0 Z " fill="#3558A0" transform="translate(613,341)"/>
<path d="M0 0 C0.99 0 1.98 0 3 0 C1.7063693 3.88089211 -0.26113383 6.69353113 -2.69140625 9.953125 C-5.07846657 13.68691488 -6.50399056 17.84627547 -8 22 C-8.99 22 -9.98 22 -11 22 C-10.39174267 17.6024639 -8.7531372 14.31214643 -6.625 10.4375 C-6.01914062 9.32246094 -5.41328125 8.20742188 -4.7890625 7.05859375 C-1.83242987 2.00391395 -1.83242987 2.00391395 0 0 Z " fill="#74A86B" transform="translate(653,257)"/>
<path d="M0 0 C3.09298408 1.6986865 4.64036059 3.30326925 7 6 C6.34 6.66 5.68 7.32 5 8 C4.2575 7.360625 3.515 6.72125 2.75 6.0625 C-1.86051348 2.60461489 -6.31163241 2.50042281 -12 3 C-13.6744239 3.6469365 -15.34302621 4.30959426 -17 5 C-19.3125 4.625 -19.3125 4.625 -21 4 C-14.59380831 -0.88090795 -7.86312744 -1.27062247 0 0 Z " fill="#36599F" transform="translate(919,538)"/>
<path d="M0 0 C6.6 0 13.2 0 20 0 C20 0.66 20 1.32 20 2 C13.73 2 7.46 2 1 2 C1 4.64 1 7.28 1 10 C-1.31 8.35 -3.62 6.7 -6 5 C-4.68 4.67 -3.36 4.34 -2 4 C-1.34 2.68 -0.68 1.36 0 0 Z " fill="#323536" transform="translate(458,523)"/>
<path d="M0 0 C0.66 0.66 1.32 1.32 2 2 C-0.07865006 5.11797509 -0.61045764 5.79268809 -4 7 C-7.4609375 7.30078125 -7.4609375 7.30078125 -11.375 7.3125 C-12.66148437 7.32925781 -13.94796875 7.34601562 -15.2734375 7.36328125 C-19.19149454 6.98133229 -21.63001614 5.97712676 -25 4 C-24.01 3.34 -23.02 2.68 -22 2 C-21.319375 2.28875 -20.63875 2.5775 -19.9375 2.875 C-14.40189436 4.99501918 -8.89680563 4.76537771 -3.4375 2.5625 C-1.14278259 1.21401488 -1.14278259 1.21401488 0 0 Z " fill="#3E5E9F" transform="translate(925,575)"/>
<path d="M0 0 C6.6 0 13.2 0 20 0 C20 2.31 20 4.62 20 7 C19.67 5.68 19.34 4.36 19 3 C12.73 3 6.46 3 0 3 C0 2.01 0 1.02 0 0 Z " fill="#3658A2" transform="translate(830,523)"/>
<path d="M0 0 C2.47960136 0.14024219 4.95852402 0.2869185 7.4375 0.4375 C8.14455078 0.47681641 8.85160156 0.51613281 9.58007812 0.55664062 C14.88671875 0.88671875 14.88671875 0.88671875 16 2 C18.85877909 2.23701239 21.69883297 2.42219182 24.5625 2.5625 C25.36880859 2.60568359 26.17511719 2.64886719 27.00585938 2.69335938 C29.00368805 2.79975262 31.0018207 2.90040888 33 3 C33 3.33 33 3.66 33 4 C22.77 4 12.54 4 2 4 C1.34 2.68 0.68 1.36 0 0 Z " fill="#4761A0" transform="translate(621,425)"/>
<path d="M0 0 C3.73487777 0.4979837 5.81237635 0.87491756 9 3 C8.57301359 7.81640666 6.71856374 9.64599422 3.125 12.75 C2.24070312 13.52859375 1.35640625 14.3071875 0.4453125 15.109375 C-2 17 -2 17 -5 18 C-5.33 17.34 -5.66 16.68 -6 16 C-5.38511719 15.54109375 -4.77023437 15.0821875 -4.13671875 14.609375 C-3.32847656 13.99578125 -2.52023437 13.3821875 -1.6875 12.75 C-0.88699219 12.14671875 -0.08648438 11.5434375 0.73828125 10.921875 C2.88549612 9.09729864 4.41601299 7.31702954 6 5 C5.34 5 4.68 5 4 5 C4 4.01 4 3.02 4 2 C2.68 1.34 1.36 0.68 0 0 Z " fill="#34353B" transform="translate(620,578)"/>
<path d="M0 0 C0.928125 -0.01224609 1.85625 -0.02449219 2.8125 -0.03710938 C3.699375 -0.03904297 4.58625 -0.04097656 5.5 -0.04296875 C6.3146875 -0.04707764 7.129375 -0.05118652 7.96875 -0.05541992 C10 0.1875 10 0.1875 12 2.1875 C7.39740305 3.07947615 2.99851145 3.35168651 -1.6875 3.375 C-2.99074219 3.38917969 -4.29398438 3.40335937 -5.63671875 3.41796875 C-9 3.1875 -9 3.1875 -12 1.1875 C-8.34657606 -0.63921197 -4.02160841 0.00279278 0 0 Z " fill="#2D44B6" transform="translate(540,372.8125)"/>
<path d="M0 0 C0.82741699 0.01047363 1.65483398 0.02094727 2.50732422 0.03173828 C3.40322266 0.03818359 4.29912109 0.04462891 5.22216797 0.05126953 C6.62789062 0.07640625 6.62789062 0.07640625 8.06201172 0.10205078 C9.00689453 0.11107422 9.95177734 0.12009766 10.92529297 0.12939453 C13.26278464 0.15300556 15.59977295 0.18593562 17.93701172 0.22705078 C16.95659003 5.93217126 16.95659003 5.93217126 13.93701172 8.22705078 C13.27701172 8.22705078 12.61701172 8.22705078 11.93701172 8.22705078 C12.93701172 6.22705078 13.93701172 4.22705078 14.93701172 2.22705078 C8.66701172 2.22705078 2.39701172 2.22705078 -4.06298828 2.22705078 C-2.06298828 0.22705078 -2.06298828 0.22705078 0 0 Z " fill="#323236" transform="translate(540.06298828125,522.77294921875)"/>
<path d="M0 0 C2.58361518 -0.05407567 5.16609255 -0.093707 7.75 -0.125 C8.84441406 -0.15013672 8.84441406 -0.15013672 9.9609375 -0.17578125 C13.8044624 -0.21072239 16.74606772 -0.17499684 20 2 C17.46376987 4.53623013 11.40261597 3.86614074 8 4 C4.64111323 3.81783815 1.33022153 3.46955401 -2 3 C-1.34 2.67 -0.68 2.34 0 2 C0 1.34 0 0.68 0 0 Z " fill="#3B56A4" transform="translate(903,521)"/>
<path d="M0 0 C0.33 0 0.66 0 1 0 C1 8.91 1 17.82 1 27 C1.66 27.33 2.32 27.66 3 28 C1.02 28.99 1.02 28.99 -1 30 C-1.02917234 26.12501596 -1.04685673 22.25006042 -1.0625 18.375 C-1.07087891 17.28058594 -1.07925781 16.18617188 -1.08789062 15.05859375 C-1.09111328 13.99511719 -1.09433594 12.93164062 -1.09765625 11.8359375 C-1.10289307 10.86188965 -1.10812988 9.8878418 -1.11352539 8.88427734 C-0.99414506 5.85124679 -0.55866724 2.98084732 0 0 Z " fill="#363A3C" transform="translate(511,525)"/>
<path d="M0 0 C2.95887459 -0.08069658 5.9155659 -0.14034665 8.875 -0.1875 C9.71675781 -0.21263672 10.55851563 -0.23777344 11.42578125 -0.26367188 C12.23144531 -0.27333984 13.03710938 -0.28300781 13.8671875 -0.29296875 C14.98262939 -0.31653442 14.98262939 -0.31653442 16.12060547 -0.34057617 C17.05090576 -0.17199097 17.05090576 -0.17199097 18 0 C18.66 0.99 19.32 1.98 20 3 C13.4 3 6.8 3 0 3 C0 2.01 0 1.02 0 0 Z " fill="#2D5E98" transform="translate(534,327)"/>
<path d="M0 0 C0.33 0 0.66 0 1 0 C2.27041977 9.04039783 3.34915606 17.84435229 3 27 C2.01 27.33 1.02 27.66 0 28 C0 18.76 0 9.52 0 0 Z " fill="#315E9E" transform="translate(814,569)"/>
<path d="M0 0 C0.66 0 1.32 0 2 0 C2 2.64 2 5.28 2 8 C8.27 8 14.54 8 21 8 C21 8.66 21 9.32 21 10 C14.4 10 7.8 10 1 10 C0.10221639 7.30664917 -0.56897081 4.8016897 -1 2 C-0.67 1.34 -0.34 0.68 0 0 Z " fill="#323436" transform="translate(457,587)"/>
<path d="M0 0 C0.33 0.99 0.66 1.98 1 3 C-3.99492782 5.610985 -7.86616511 7.13926511 -13.5 7.1875 C-14.2528125 7.20167969 -15.005625 7.21585938 -15.78125 7.23046875 C-18.24864173 6.97417278 -19.86356256 6.22845153 -22 5 C-20.83082031 4.80664062 -19.66164063 4.61328125 -18.45703125 4.4140625 C-16.90880468 4.15133314 -15.3606303 3.88829608 -13.8125 3.625 C-13.04357422 3.49867188 -12.27464844 3.37234375 -11.48242188 3.2421875 C-7.42338062 2.54535638 -3.77045984 1.7378873 0 0 Z " fill="#3653A4" transform="translate(931,592)"/>
<path d="M0 0 C4.2002771 0.90523213 7.57966461 2.90282094 11.25 5.0625 C11.8996875 5.43955078 12.549375 5.81660156 13.21875 6.20507812 C14.81505091 7.13234115 16.40787529 8.06558456 18 9 C17.67 9.66 17.34 10.32 17 11 C12.70376225 10.13277799 9.18187379 8.09804729 5.33984375 6.05859375 C2.97248092 4.79390103 2.97248092 4.79390103 0 5 C0 3.35 0 1.7 0 0 Z " fill="#3C599E" transform="translate(662,399)"/>
<path d="M0 0 C1.485 0.99 1.485 0.99 3 2 C5.22131423 2.3650791 5.22131423 2.3650791 7.66796875 2.4140625 C8.56064453 2.45273437 9.45332031 2.49140625 10.37304688 2.53125 C11.30181641 2.5621875 12.23058594 2.593125 13.1875 2.625 C14.12787109 2.66367187 15.06824219 2.70234375 16.03710938 2.7421875 C18.3578771 2.83643187 20.67863748 2.92204025 23 3 C23.33 3.66 23.66 4.32 24 5 C20.39610336 5.11601004 16.79268533 5.18718408 13.1875 5.25 C12.16333984 5.28351562 11.13917969 5.31703125 10.08398438 5.3515625 C9.10107422 5.36445312 8.11816406 5.37734375 7.10546875 5.390625 C5.74651489 5.4220459 5.74651489 5.4220459 4.36010742 5.45410156 C2 5 2 5 0.1809082 2.97558594 C-0.2087915 2.32364258 -0.59849121 1.67169922 -1 1 C-0.67 0.67 -0.34 0.34 0 0 Z " fill="#353739" transform="translate(534,592)"/>
<path d="M0 0 C2 0.3125 2 0.3125 4 1 C4.33 1.66 4.66 2.32 5 3 C4.38511719 3.19335938 3.77023437 3.38671875 3.13671875 3.5859375 C1.92435547 3.97652344 1.92435547 3.97652344 0.6875 4.375 C-0.11300781 4.63023437 -0.91351562 4.88546875 -1.73828125 5.1484375 C-4.22724528 5.98831811 -4.22724528 5.98831811 -7 8 C-9.33984375 8.484375 -9.33984375 8.484375 -11.9375 8.75 C-12.79214844 8.84796875 -13.64679687 8.9459375 -14.52734375 9.046875 C-17.23766556 8.99549449 -18.70187794 8.38633814 -21 7 C-19.71416016 6.85304688 -19.71416016 6.85304688 -18.40234375 6.703125 C-8.32917704 5.46590745 -8.32917704 5.46590745 0 0 Z " fill="#313336" transform="translate(612,573)"/>
<path d="M0 0 C8.43435936 -0.6422101 14.02409081 0.06753896 21 5 C21 5.99 21 6.98 21 8 C18.4522472 7.52819393 16.79422776 6.87337093 14.5625 5.5 C11.96973207 3.98228219 9.95070024 3.42152861 7 3 C7 2.34 7 1.68 7 1 C4.69 1 2.38 1 0 1 C0 0.67 0 0.34 0 0 Z " fill="#425EA4" transform="translate(772,539)"/>
<path d="M0 0 C5.94 0.66 11.88 1.32 18 2 C15 5 15 5 11.71484375 5.109375 C10.46832031 4.99078125 9.22179687 4.8721875 7.9375 4.75 C6.68839844 4.64171875 5.43929687 4.5334375 4.15234375 4.421875 C1 4 1 4 -1 3 C-0.67 2.01 -0.34 1.02 0 0 Z M18 1 C20 2 20 2 20 2 Z " fill="#425B9E" transform="translate(768,577)"/>
<path d="M0 0 C4.48790572 0.70449683 8.55636186 2.25277254 12.75 3.9375 C13.43449219 4.20240234 14.11898437 4.46730469 14.82421875 4.74023438 C19.87846417 6.75692834 19.87846417 6.75692834 21 9 C16.44579198 8.39277226 12.51687742 7.19102054 8.25 5.5 C7.12078125 5.0565625 5.9915625 4.613125 4.828125 4.15625 C3.19663059 3.48923018 1.57649978 2.78824989 0 2 C0 1.34 0 0.68 0 0 Z " fill="#3B5998" transform="translate(688,413)"/>
<path d="M0 0 C0.99 0.495 0.99 0.495 2 1 C2.4140625 3.06640625 2.4140625 3.06640625 2.625 5.5625 C2.69976563 6.38878906 2.77453125 7.21507812 2.8515625 8.06640625 C2.92503906 9.02353516 2.92503906 9.02353516 3 10 C3.33 10 3.66 10 4 10 C4.91657981 15.38490641 5.11138159 20.54230189 5 26 C4.33333333 24.66666667 3.66666667 23.33333333 3 22 C2.48300537 21.07429199 2.48300537 21.07429199 1.95556641 20.12988281 C0.92470561 17.8321747 0.69326341 16.17614615 0.5859375 13.671875 C0.54726563 12.87265625 0.50859375 12.0734375 0.46875 11.25 C0.4378125 10.425 0.406875 9.6 0.375 8.75 C0.33632813 7.90953125 0.29765625 7.0690625 0.2578125 6.203125 C0.16384164 4.13576618 0.08084436 2.06791373 0 0 Z " fill="#3851AA" transform="translate(567,405)"/>
<path d="M0 0 C0.33 0 0.66 0 1 0 C1.66 7.26 2.32 14.52 3 22 C2.01 21.67 1.02 21.34 0 21 C-1.10977901 17.67066298 -1.13301537 15.12771692 -1.125 11.625 C-1.12757813 10.50351562 -1.13015625 9.38203125 -1.1328125 8.2265625 C-1.01470948 5.35735378 -0.65782328 2.78791771 0 0 Z " fill="#3C5896" transform="translate(639,539)"/>
<path d="M0 0 C-0.58007812 0.35191406 -1.16015625 0.70382812 -1.7578125 1.06640625 C-7.18561655 4.49685007 -11.05132765 7.93759955 -15 13 C-15.99 12.67 -16.98 12.34 -18 12 C-14.44363129 5.77635476 -7.71490567 -2.3144717 0 0 Z " fill="#313334" transform="translate(424,525)"/>
<path d="M0 0 C0 0.33 0 0.66 0 1 C-0.59167969 1.12117187 -1.18335938 1.24234375 -1.79296875 1.3671875 C-6.03803585 2.26744643 -10.02439661 3.20456621 -14 5 C-14 5.66 -14 6.32 -14 7 C-15.32 7 -16.64 7 -18 7 C-17.5 4.6875 -17.5 4.6875 -16 2 C-10.70090755 -1.35947249 -5.96264563 -1.17123396 0 0 Z " fill="#405AA0" transform="translate(779,540)"/>
<path d="M0 0 C1.25425781 0.00902344 2.50851562 0.01804688 3.80078125 0.02734375 C4.75339844 0.03894531 5.70601562 0.05054688 6.6875 0.0625 C7.0175 0.7225 7.3475 1.3825 7.6875 2.0625 C1.09674767 3.93707064 -5.64214627 3.19787936 -12.3125 2.0625 C-12.3125 1.7325 -12.3125 1.4025 -12.3125 1.0625 C-8.15623632 0.05323521 -4.26884906 -0.03989579 0 0 Z " fill="#3C5594" transform="translate(642.3125,179.9375)"/>
<path d="M0 0 C1.7074998 1.28062485 3.37373596 2.61767557 5 4 C5 4.66 5 5.32 5 6 C5.598125 6.268125 6.19625 6.53625 6.8125 6.8125 C8.97224808 7.98493467 10.35790256 9.19369282 12 11 C8.7171341 11.36795695 7.41336988 11.3231932 4.76171875 9.25 C4.07722656 8.5075 3.39273438 7.765 2.6875 7 C1.99011719 6.2575 1.29273438 5.515 0.57421875 4.75 C0.05472656 4.1725 -0.46476563 3.595 -1 3 C-0.67 2.01 -0.34 1.02 0 0 Z " fill="#4761A2" transform="translate(746,582)"/>
<path d="M0 0 C5.875 3.625 5.875 3.625 7 7 C7.66 7 8.32 7 9 7 C9.33 8.98 9.66 10.96 10 13 C9.34 13 8.68 13 8 13 C6.64721885 11.01310269 5.31431695 9.01254782 4 7 C3.34 6.67 2.68 6.34 2 6 C2 5.34 2 4.68 2 4 C1.34 4 0.68 4 0 4 C0 2.68 0 1.36 0 0 Z " fill="#3A5BA2" transform="translate(931,526)"/>
<path d="M0 0 C-1 1 -1 1 -3.13305664 1.11352539 C-4.04949951 1.10828857 -4.96594238 1.10305176 -5.91015625 1.09765625 C-6.89951172 1.09443359 -7.88886719 1.09121094 -8.90820312 1.08789062 C-9.94912109 1.07951172 -10.99003906 1.07113281 -12.0625 1.0625 C-13.10728516 1.05798828 -14.15207031 1.05347656 -15.22851562 1.04882812 C-17.8190666 1.03699913 -20.40950559 1.02051689 -23 1 C-23 0.67 -23 0.34 -23 0 C-19.54342293 -0.3925703 -16.08469904 -0.76105763 -12.625 -1.125 C-11.64015625 -1.23714844 -10.6553125 -1.34929688 -9.640625 -1.46484375 C-8.69960938 -1.56152344 -7.75859375 -1.65820312 -6.7890625 -1.7578125 C-5.91975098 -1.8520752 -5.05043945 -1.94633789 -4.15478516 -2.04345703 C-2 -2 -2 -2 0 0 Z " fill="#353739" transform="translate(382,596)"/>
<path d="M0 0 C0.66 0.33 1.32 0.66 2 1 C2 6.28 2 11.56 2 17 C-1 14 -1 14 -1.25 10.1875 C-1.12227266 6.73247555 -0.67864514 3.3932257 0 0 Z " fill="#3257A6" transform="translate(613,254)"/>
<path d="M0 0 C0 0.66 0 1.32 0 2 C-0.66 2 -1.32 2 -2 2 C-2 2.66 -2 3.32 -2 4 C-6.35487984 6.43873271 -10.99365563 8 -16 8 C-13.19861651 4.88735168 -10.95070477 3.34902114 -7 2 C-6.113125 1.62875 -5.22625 1.2575 -4.3125 0.875 C-2 0 -2 0 0 0 Z " fill="#6A9F83" transform="translate(692,229)"/>
<path d="M0 0 C0.33 0 0.66 0 1 0 C1.0809723 2.43816585 1.14046972 4.87364384 1.1875 7.3125 C1.22520508 8.34793945 1.22520508 8.34793945 1.26367188 9.40429688 C1.33834499 14.55674183 1.33834499 14.55674183 -0.51171875 16.98046875 C-1.24841797 17.48513672 -1.24841797 17.48513672 -2 18 C-2.3690205 5.33029613 -2.3690205 5.33029613 0 0 Z " fill="#4764A6" transform="translate(470,285)"/>
<path d="M0 0 C3.37534275 1.37278091 4.6632735 2.5776937 6.1875 5.875 C6.67283203 6.89207031 6.67283203 6.89207031 7.16796875 7.9296875 C7.99184268 9.97970245 8.69284011 11.80862048 9 14 C8.34 14.66 7.68 15.32 7 16 C6.66226563 15.18015625 6.32453125 14.3603125 5.9765625 13.515625 C5.53054688 12.43796875 5.08453125 11.3603125 4.625 10.25 C4.18414063 9.18265625 3.74328125 8.1153125 3.2890625 7.015625 C2.26692415 4.62444074 1.19786405 2.30616817 0 0 Z " fill="#37393F" transform="translate(623,535)"/>
<path d="M0 0 C0.66 0 1.32 0 2 0 C2.66 1.65 3.32 3.3 4 5 C4.66 5 5.32 5 6 5 C7.92152816 7.88229224 9.46387819 10.90127153 11 14 C2.09504624 7.84479443 2.09504624 7.84479443 0 3 C0 2.01 0 1.02 0 0 Z " fill="#4A65A4" transform="translate(644,570)"/>
<path d="M0 0 C5.94937013 0.56660668 10.02356503 2.62827804 13.875 7.25 C14.24625 7.8275 14.6175 8.405 15 9 C14.34 9.66 13.68 10.32 13 11 C12.360625 10.071875 11.72125 9.14375 11.0625 8.1875 C7.82039741 4.22388903 3.83406415 3.20061724 -1 2 C-0.67 1.34 -0.34 0.68 0 0 Z " fill="#343537" transform="translate(442,540)"/>
<path d="M0 0 C0.33 0.66 0.66 1.32 1 2 C-1.55081829 4.97595467 -4.43434437 6.44002566 -8 8 C-8.99 8 -9.98 8 -11 8 C-9.98244259 5.33869601 -9.33315139 4.19483944 -6.8359375 2.734375 C-5.61777344 2.24710938 -5.61777344 2.24710938 -4.375 1.75 C-3.55773437 1.41484375 -2.74046875 1.0796875 -1.8984375 0.734375 C-0.95871094 0.37085938 -0.95871094 0.37085938 0 0 Z " fill="#3954AC" transform="translate(899,522)"/>
<path d="M0 0 C0 0.66 0 1.32 0 2 C-1.43011973 2.86646667 -2.86940619 3.71781829 -4.3125 4.5625 C-5.51326172 5.27599609 -5.51326172 5.27599609 -6.73828125 6.00390625 C-9 7 -9 7 -12 6 C-11 3 -11 3 -9.2578125 2.05078125 C-8.55398438 1.80714844 -7.85015625 1.56351563 -7.125 1.3125 C-6.42632813 1.06113281 -5.72765625 0.80976562 -5.0078125 0.55078125 C-3 0 -3 0 0 0 Z " fill="#4B61A0" transform="translate(726,522)"/>
<path d="M0 0 C0.99 0.66 1.98 1.32 3 2 C-0.3 4.97 -3.6 7.94 -7 11 C-7.33 9.68 -7.66 8.36 -8 7 C-5.36 4.69 -2.72 2.38 0 0 Z " fill="#435EA4" transform="translate(661,500)"/>
<path d="M0 0 C3 3 3 3 3.29296875 5.48046875 C3.25816406 6.37378906 3.22335937 7.26710938 3.1875 8.1875 C3.16042969 9.08855469 3.13335938 9.98960937 3.10546875 10.91796875 C3.07066406 11.60503906 3.03585937 12.29210937 3 13 C2.01 13 1.02 13 0 13 C0 8.71 0 4.42 0 0 Z " fill="#3D5EA5" transform="translate(612,268)"/>
<path d="M0 0 C8.44646925 6.15034169 8.44646925 6.15034169 12 10 C11.01 10.495 11.01 10.495 10 11 C8.50923171 10.12360894 7.03266131 9.22303672 5.5625 8.3125 C4.73878906 7.81363281 3.91507813 7.31476562 3.06640625 6.80078125 C0.56280677 4.61900552 0.30406442 3.24519666 0 0 Z " fill="#303738" transform="translate(566,584)"/>
<path d="M0 0 C0 0.33 0 0.66 0 1 C-1.65 1 -3.3 1 -5 1 C-5 1.66 -5 2.32 -5 3 C-8.96 3.99 -12.92 4.98 -17 6 C-17 5.34 -17 4.68 -17 4 C-11.06561592 0.92291196 -6.70126536 -0.48736475 0 0 Z " fill="#3250A2" transform="translate(871,522)"/>
<path d="M0 0 C3.96 1.32 7.92 2.64 12 4 C12 4.66 12 5.32 12 6 C9.5332355 6.88336837 8.36140628 7.1312406 5.859375 6.22265625 C5.16328125 5.83980469 4.4671875 5.45695313 3.75 5.0625 C3.04359375 4.68222656 2.3371875 4.30195313 1.609375 3.91015625 C1.07828125 3.60980469 0.5471875 3.30945313 0 3 C0 2.01 0 1.02 0 0 Z " fill="#77A96A" transform="translate(755,222)"/>
<path d="M0 0 C0.66 0.33 1.32 0.66 2 1 C1.401875 1.721875 0.80375 2.44375 0.1875 3.1875 C-1.7757602 5.71169168 -3.3695199 8.25782892 -5 11 C-5.66 11.66 -6.32 12.32 -7 13 C-7.99 12.67 -8.98 12.34 -10 12 C-6.7 8.04 -3.4 4.08 0 0 Z " fill="#2B2C2E" transform="translate(522,539)"/>
<path d="M0 0 C0.99 0.33 1.98 0.66 3 1 C1.07158542 2.53376229 -0.86621794 4.0517182 -2.8125 5.5625 C-3.35970703 6.00013672 -3.90691406 6.43777344 -4.47070312 6.88867188 C-5.9221958 8.00588139 -7.45810571 9.01128867 -9 10 C-9.99 9.67 -10.98 9.34 -12 9 C-10.34808509 7.64843325 -8.67705908 6.320238 -7 5 C-6.41089844 4.53335937 -5.82179688 4.06671875 -5.21484375 3.5859375 C-4.30412109 2.89371094 -4.30412109 2.89371094 -3.375 2.1875 C-2.80523438 1.74792969 -2.23546875 1.30835938 -1.6484375 0.85546875 C-1.10445312 0.57316406 -0.56046875 0.29085938 0 0 Z " fill="#64B557" transform="translate(793,382)"/>
<path d="M0 0 C0.33 0 0.66 0 1 0 C1.144375 0.7425 1.28875 1.485 1.4375 2.25 C1.94197586 4.91286562 1.94197586 4.91286562 2.625 7.125 C3 9 3 9 2 12 C2.99 12.33 3.98 12.66 5 13 C3.35 13.66 1.7 14.32 0 15 C0 10.05 0 5.1 0 0 Z " fill="#506A8E" transform="translate(661,233)"/>
<path d="M0 0 C1.7074998 1.28062485 3.37373596 2.61767557 5 4 C5 4.66 5 5.32 5 6 C5.66 6 6.32 6 7 6 C9 9 9 9 8.625 11.1875 C8.41875 11.785625 8.2125 12.38375 8 13 C6.6578508 11.40320196 5.32652885 9.79729803 4 8.1875 C2.88625 6.84751953 2.88625 6.84751953 1.75 5.48046875 C0 3 0 3 0 0 Z " fill="#2D2D2E" transform="translate(544,577)"/>
<path d="M0 0 C0.89525391 0.29777344 0.89525391 0.29777344 1.80859375 0.6015625 C1.09832031 1.08367188 0.38804687 1.56578125 -0.34375 2.0625 C-1.26285156 2.69414063 -2.18195312 3.32578125 -3.12890625 3.9765625 C-4.04542969 4.60304688 -4.96195313 5.22953125 -5.90625 5.875 C-8.27527789 7.39927321 -8.27527789 7.39927321 -9.19140625 9.6015625 C-9.85140625 9.2715625 -10.51140625 8.9415625 -11.19140625 8.6015625 C-9.02091823 4.26058646 -5.4438894 -0.98979807 0 0 Z " fill="#313338" transform="translate(578.19140625,525.3984375)"/>
<path d="M0 0 C4.83256305 0.41421969 6.82679218 2.46413986 10 6 C9.67 6.99 9.34 7.98 9 9 C7.68412059 7.87895467 6.37239647 6.75303035 5.0625 5.625 C4.33160156 4.99851563 3.60070312 4.37203125 2.84765625 3.7265625 C1 2 1 2 0 0 Z " fill="#4660A4" transform="translate(652,182)"/>
<path d="M0 0 C0 0.99 0 1.98 0 3 C-1.01320313 3.19916016 -1.01320313 3.19916016 -2.046875 3.40234375 C-3.38492188 3.66724609 -3.38492188 3.66724609 -4.75 3.9375 C-5.63171875 4.11152344 -6.5134375 4.28554688 -7.421875 4.46484375 C-9.63235053 4.92368488 -11.81512068 5.43336074 -14 6 C-14 5.34 -14 4.68 -14 4 C-12.23141309 3.32739649 -10.46003984 2.66211605 -8.6875 2 C-7.70136719 1.62875 -6.71523438 1.2575 -5.69921875 0.875 C-3 0 -3 0 0 0 Z " fill="#3251AD" transform="translate(770,521)"/>
<path d="M0 0 C3.99012371 0.55989303 6.5255052 1.75669768 9.8125 4.0625 C10.60269531 4.61035156 11.39289062 5.15820312 12.20703125 5.72265625 C12.79871094 6.14417969 13.39039063 6.56570313 14 7 C11 8 11 8 9.0625 7.0390625 C8.381875 6.57242188 7.70125 6.10578125 7 5.625 C4.57653954 3.98182037 2.81102407 2.93700802 0 2 C0 1.34 0 0.68 0 0 Z " fill="#2E3134" transform="translate(607,523)"/>
<path d="M0 0 C4.28904235 1.5885342 6.32345526 4.43127368 9 8 C9 8.66 9 9.32 9 10 C5.83884224 8.63016497 5.0072908 8.0109362 3 5 C2.01 4.67 1.02 4.34 0 4 C0 2.68 0 1.36 0 0 Z " fill="#343638" transform="translate(510,563)"/>
<path d="M0 0 C1.32 0.33 2.64 0.66 4 1 C-1.09090909 6.27272727 -1.09090909 6.27272727 -4 8 C-6.25 7.6875 -6.25 7.6875 -8 7 C-4.25 4 -4.25 4 -2 4 C-2 3.34 -2 2.68 -2 2 C-1.34 2 -0.68 2 0 2 C0 1.34 0 0.68 0 0 Z " fill="#6FA562" transform="translate(704,272)"/>
<path d="M0 0 C1.1446875 0.12375 1.1446875 0.12375 2.3125 0.25 C1.38288578 1.40224028 0.4434875 2.54659176 -0.5 3.6875 C-1.28310547 4.64462891 -1.28310547 4.64462891 -2.08203125 5.62109375 C-3.6875 7.25 -3.6875 7.25 -6.6875 8.25 C-5.9168107 3.93413993 -4.72992724 0.43999323 0 0 Z " fill="#75A873" transform="translate(662.6875,247.75)"/>
<path d="M0 0 C-0.99 0.33 -1.98 0.66 -3 1 C-3.99 2.485 -3.99 2.485 -5 4 C-6.9453125 4.29296875 -6.9453125 4.29296875 -9.125 4.1875 C-10.40375 4.125625 -11.6825 4.06375 -13 4 C-8.93522219 0.68795882 -5.26054188 -1.94834884 0 0 Z " fill="#70A884" transform="translate(706,225)"/>
<path d="M0 0 C-1.1241176 1.29243468 -2.24932592 2.58392075 -3.375 3.875 C-4.00148438 4.59429687 -4.62796875 5.31359375 -5.2734375 6.0546875 C-6.47426834 7.4076598 -7.7208345 8.7208345 -9 10 C-9.33 9.01 -9.66 8.02 -10 7 C-4.816 -2.408 -4.816 -2.408 0 0 Z " fill="#4760A1" transform="translate(585,155)"/>
<path d="M0 0 C2.31 0.33 4.62 0.66 7 1 C7.33 1.99 7.66 2.98 8 4 C4.7 3.67 1.4 3.34 -2 3 C-1.34 2.01 -0.68 1.02 0 0 Z " fill="#3B609D" transform="translate(678,595)"/>
<path d="M0 0 C2.0625 0.4375 2.0625 0.4375 4 1 C3.67 2.98 3.34 4.96 3 7 C1 6 1 6 0 5 C-2.05396726 5.40929986 -2.05396726 5.40929986 -4 6 C-1.125 1.125 -1.125 1.125 0 0 Z " fill="#3A50AB" transform="translate(794,588)"/>
<path d="M0 0 C0.66 0 1.32 0 2 0 C3.21875 1.49609375 3.21875 1.49609375 4.5 3.4375 C6.2865363 6.22531847 6.2865363 6.22531847 9 8 C9 8.66 9 9.32 9 10 C4.5969913 8.65463623 2.528436 6.83947688 0 3 C0 2.01 0 1.02 0 0 Z " fill="#313234" transform="translate(421,568)"/>
<path d="M0 0 C6.6 0.33 13.2 0.66 20 1 C20.33 1.99 20.66 2.98 21 4 C20.50886719 3.84402344 20.01773438 3.68804687 19.51171875 3.52734375 C15.26480712 2.63569045 10.90806604 2.63766904 6.58007812 2.48242188 C4.71532904 2.39150035 2.85585032 2.20340958 1 2 C0.67 1.34 0.34 0.68 0 0 Z " fill="#77AD6B" transform="translate(719,404)"/>
<path d="M0 0 C1.32 0.33 2.64 0.66 4 1 C4 4.96 4 8.92 4 13 C3.34 12.67 2.68 12.34 2 12 C1.62109375 9.78515625 1.62109375 9.78515625 1.4375 7.0625 C1.23198677 3.39324879 1.23198677 3.39324879 0 0 Z " fill="#3851A4" transform="translate(552,327)"/>
<path d="M0 0 C0.66 0 1.32 0 2 0 C1.67 2.64 1.34 5.28 1 8 C0.34 8 -0.32 8 -1 8 C-1 9.65 -1 11.3 -1 13 C-1.66 12.67 -2.32 12.34 -3 12 C-2.69230293 10.18667846 -2.37870936 8.37435655 -2.0625 6.5625 C-1.80146484 5.04849609 -1.80146484 5.04849609 -1.53515625 3.50390625 C-1 1 -1 1 0 0 Z " fill="#68AD5A" transform="translate(639,286)"/>
<path d="M0 0 C0.66 0.33 1.32 0.66 2 1 C2 1.99 2 2.98 2 4 C-0.5 6.1875 -0.5 6.1875 -3 8 C-3.66 7.67 -4.32 7.34 -5 7 C-3.88820837 3.66462511 -2.52588702 2.36292656 0 0 Z " fill="#4D64A0" transform="translate(693,453)"/>
<path d="M0 0 C3.63 0.66 7.26 1.32 11 2 C11 2.66 11 3.32 11 4 C8.83032311 4.95465783 7.43671207 5.14401212 5.17578125 4.3984375 C3.4315257 3.64129615 1.71372869 2.82390802 0 2 C0 1.34 0 0.68 0 0 Z " fill="#6FA563" transform="translate(712,356)"/>
<path d="M0 0 C0.66 0.33 1.32 0.66 2 1 C2.05395478 2.62463842 2.09277195 4.24978541 2.125 5.875 C2.14820313 6.77992188 2.17140625 7.68484375 2.1953125 8.6171875 C2 11 2 11 0 13 C-0.96661363 9.87819599 -0.98988909 7.47916205 -0.5625 4.25 C-0.46066406 3.45078125 -0.35882812 2.6515625 -0.25390625 1.828125 C-0.17011719 1.22484375 -0.08632813 0.6215625 0 0 Z " fill="#383B3E" transform="translate(631,556)"/>
<path d="M0 0 C6.6 0 13.2 0 20 0 C20 0.33 20 0.66 20 1 C18.87980469 1.06058594 17.75960937 1.12117188 16.60546875 1.18359375 C15.13280016 1.26801424 13.66014456 1.35266149 12.1875 1.4375 C11.44951172 1.47681641 10.71152344 1.51613281 9.95117188 1.55664062 C6.76928658 1.74381035 4.03837622 1.98720793 1 3 C0.67 2.01 0.34 1.02 0 0 Z " fill="#3A59A1" transform="translate(619,471)"/>
<path d="M0 0 C1.98 0.66 3.96 1.32 6 2 C5.01 2.66 4.02 3.32 3 4 C1.99351323 4.8885391 0.99354479 5.78451268 0 6.6875 C-0.99 7.450625 -1.98 8.21375 -3 9 C-3.99 8.67 -4.98 8.34 -6 8 C-4.7934375 7.13375 -4.7934375 7.13375 -3.5625 6.25 C-1.02133261 4.01873107 -0.34879632 3.25543229 0 0 Z " fill="#77AC6A" transform="translate(762,342)"/>
<path d="M0 0 C0.66 0.33 1.32 0.66 2 1 C1.125 5.75 1.125 5.75 0 8 C-0.66 8 -1.32 8 -2 8 C-2.33 8.66 -2.66 9.32 -3 10 C-2.88637738 8.5199159 -2.75877092 7.04089926 -2.625 5.5625 C-2.55539062 4.73878906 -2.48578125 3.91507812 -2.4140625 3.06640625 C-2.27742187 2.38449219 -2.14078125 1.70257813 -2 1 C-1.34 0.67 -0.68 0.34 0 0 Z " fill="#445C9C" transform="translate(516,286)"/>
<path d="M0 0 C3.3 0 6.6 0 10 0 C10 0.99 10 1.98 10 3 C8.5199159 2.88637738 7.04089926 2.75877092 5.5625 2.625 C4.73878906 2.55539063 3.91507813 2.48578125 3.06640625 2.4140625 C2.38449219 2.27742187 1.70257812 2.14078125 1 2 C0.67 1.34 0.34 0.68 0 0 Z " fill="#74A869" transform="translate(738,220)"/>
<path d="M0 0 C2.31 0 4.62 0 7 0 C7 0.66 7 1.32 7 2 C3.62902617 3.49821059 1.79557881 4 -2 4 C-2 3.34 -2 2.68 -2 2 C-1.34 2 -0.68 2 0 2 C0 1.34 0 0.68 0 0 Z " fill="#47609E" transform="translate(619,182)"/>
<path d="M0 0 C0.33 0.99 0.66 1.98 1 3 C-0.81725675 5.82684384 -2.03937946 7.65310925 -5.25 8.8125 C-5.8275 8.874375 -6.405 8.93625 -7 9 C-5.76465298 5.29395893 -3.80264776 3.66251537 -1 1 C-0.67 0.67 -0.34 0.34 0 0 Z " fill="#2D2E30" transform="translate(456,569)"/>
<path d="M0 0 C0.66 0.66 1.32 1.32 2 2 C1.9765625 5.0390625 1.9765625 5.0390625 1.625 8.625 C1.51414062 9.81351563 1.40328125 11.00203125 1.2890625 12.2265625 C1.19367187 13.14179687 1.09828125 14.05703125 1 15 C0.67 15 0.34 15 0 15 C-0.19601608 13.25093341 -0.38147403 11.50068154 -0.5625 9.75 C-0.66691406 8.77546875 -0.77132812 7.8009375 -0.87890625 6.796875 C-0.98974468 4.2368648 -0.77738092 2.41851841 0 0 Z " fill="#3F5F97" transform="translate(739,549)"/>
<path d="M0 0 C0 0.66 0 1.32 0 2 C-1.26691507 2.67408308 -2.53870749 3.33900497 -3.8125 4 C-4.52019531 4.37125 -5.22789062 4.7425 -5.95703125 5.125 C-8 6 -8 6 -11 6 C-5.30769231 0 -5.30769231 0 0 0 Z " fill="#303236" transform="translate(435,540)"/>
<path d="M0 0 C3.96 0 7.92 0 12 0 C12.33 1.32 12.66 2.64 13 4 C10.03 3.505 10.03 3.505 7 3 C7 2.34 7 1.68 7 1 C4.69 1 2.38 1 0 1 C0 0.67 0 0.34 0 0 Z " fill="#2E4FA2" transform="translate(772,539)"/>
<path d="M0 0 C3.77545388 1.09068668 6.47043472 1.9083091 9 5 C8.01 5.495 8.01 5.495 7 6 C4.64018187 5.06421005 2.30368736 4.06652192 0 3 C0 2.01 0 1.02 0 0 Z " fill="#5FAD58" transform="translate(690,397)"/>
<path d="M0 0 C0.33 0.99 0.66 1.98 1 3 C1.66 3 2.32 3 3 3 C2.34 7.62 1.68 12.24 1 17 C0.67 17 0.34 17 0 17 C0 11.39 0 5.78 0 0 Z " fill="#3460A1" transform="translate(612,375)"/>
<path d="M0 0 C0.33 0.99 0.66 1.98 1 3 C-1.3125 6.1875 -1.3125 6.1875 -4 9 C-4.66 9 -5.32 9 -6 9 C-4.83857315 4.64464931 -3.92300495 2.35380297 0 0 Z " fill="#323336" transform="translate(540,545)"/>
<path d="M0 0 C0 3.58912412 -0.66436554 4.10857029 -3 6.6875 C-3.556875 7.31011719 -4.11375 7.93273437 -4.6875 8.57421875 C-5.120625 9.04472656 -5.55375 9.51523437 -6 10 C-6.33 9.01 -6.66 8.02 -7 7 C-4.89921489 3.92385037 -3.11378405 2.07585603 0 0 Z " fill="#2D2F30" transform="translate(534,525)"/>
<path d="M0 0 C3.87132028 0.57352893 6.08172796 2.48704352 9 5 C6.03 5 3.06 5 0 5 C0 3.35 0 1.7 0 0 Z " fill="#42659E" transform="translate(662,399)"/>
<path d="M0 0 C1.258125 0.12375 2.51625 0.2475 3.8125 0.375 C4.87404297 0.47941406 4.87404297 0.47941406 5.95703125 0.5859375 C8 1 8 1 11 3 C6.74938644 4.41687119 4.28148375 3.19320039 0 2 C0 1.34 0 0.68 0 0 Z " fill="#2E3336" transform="translate(580,595)"/>
<path d="M0 0 C3.73487777 0.4979837 5.81237635 0.87491756 9 3 C8.67 3.99 8.34 4.98 8 6 C6.68 5.67 5.36 5.34 4 5 C4 4.01 4 3.02 4 2 C2.68 1.34 1.36 0.68 0 0 Z " fill="#2B3335" transform="translate(620,578)"/>
<path d="M0 0 C0.33 0.66 0.66 1.32 1 2 C1.66 2 2.32 2 3 2 C3.33 4.64 3.66 7.28 4 10 C3.34 10 2.68 10 2 10 C0.39644899 6.49223216 -0.22036864 3.85645121 0 0 Z " fill="#4862A3" transform="translate(640,559)"/>
<path d="M0 0 C5.61 0 11.22 0 17 0 C17 0.33 17 0.66 17 1 C16.31292969 1.06058594 15.62585938 1.12117188 14.91796875 1.18359375 C13.56638672 1.30927734 13.56638672 1.30927734 12.1875 1.4375 C10.84751953 1.55931641 10.84751953 1.55931641 9.48046875 1.68359375 C6.87256441 1.93489767 6.87256441 1.93489767 4 3 C4 2.34 4 1.68 4 1 C2.68 0.67 1.36 0.34 0 0 Z " fill="#375698" transform="translate(541,281)"/>
<path d="M0 0 C2 2 2 2 2.1953125 3.9453125 C2.13020833 5.96354167 2.06510417 7.98177083 2 10 C1.01 9.67 0.02 9.34 -1 9 C-0.67 6.03 -0.34 3.06 0 0 Z " fill="#4C68A6" transform="translate(570,173)"/>
<path d="M0 0 C0.99 0 1.98 0 3 0 C4.76462683 3.08809695 5 4.23312136 5 8 C4.34 8 3.68 8 3 8 C0 2.25 0 2.25 0 0 Z " fill="#3B52AB" transform="translate(877,577)"/>
<path d="M0 0 C0.66 0.99 1.32 1.98 2 3 C-1.18762365 5.12508244 -3.26512223 5.5020163 -7 6 C-7 5.34 -7 4.68 -7 4 C-6.030625 3.525625 -5.06125 3.05125 -4.0625 2.5625 C-1.19522563 1.29806053 -1.19522563 1.29806053 0 0 Z M-3 5 C-1 6 -1 6 -1 6 Z " fill="#3E55B2" transform="translate(789,574)"/>
<path d="M0 0 C2.31 0 4.62 0 7 0 C7.33 1.65 7.66 3.3 8 5 C7.67 4.34 7.34 3.68 7 3 C4.69 3 2.38 3 0 3 C0 2.01 0 1.02 0 0 Z " fill="#4763A1" transform="translate(724,571)"/>
<path d="M0 0 C1.89213369 2.38573379 3.02391783 4.07175348 4 7 C3.34 7 2.68 7 2 7 C2 6.34 2 5.68 2 5 C1.01 5 0.02 5 -1 5 C-1.33 5.66 -1.66 6.32 -2 7 C-2.125 4.625 -2.125 4.625 -2 2 C-1.34 1.34 -0.68 0.68 0 0 Z " fill="#3B52AB" transform="translate(943,539)"/>
<path d="M0 0 C0.33 0.99 0.66 1.98 1 3 C-0.8125 5.6875 -0.8125 5.6875 -3 8 C-3.66 8 -4.32 8 -5 8 C-5 6.68 -5 5.36 -5 4 C-2.5 1.75 -2.5 1.75 0 0 Z " fill="#2C2D2F" transform="translate(547,536)"/>
<path d="M0 0 C1.98 0 3.96 0 6 0 C6.33 1.32 6.66 2.64 7 4 C6.01 4.495 6.01 4.495 5 5 C4.67 4.34 4.34 3.68 4 3 C2.68 3 1.36 3 0 3 C0 2.01 0 1.02 0 0 Z " fill="#3751A9" transform="translate(810,523)"/>
<path d="M0 0 C0.66 0 1.32 0 2 0 C3.01911045 3.89114901 3.16782969 5.60596507 1.5625 9.375 C1.046875 10.24125 0.53125 11.1075 0 12 C-1.53166168 7.91556885 -0.63081652 4.20544343 0 0 Z " fill="#3656AB" transform="translate(660,410)"/>
<path d="M0 0 C0.66 0 1.32 0 2 0 C0.70700306 2.88437779 -0.65941363 4.87219421 -3 7 C-3.99 6.67 -4.98 6.34 -6 6 C-4 4 -2 2 0 0 Z " fill="#65AD58" transform="translate(775,275)"/>
<path d="M0 0 C0.33 0 0.66 0 1 0 C1 4.29 1 8.58 1 13 C0.01 13 -0.98 13 -2 13 C-1.34 8.71 -0.68 4.42 0 0 Z " fill="#4A629E" transform="translate(569,187)"/>
<path d="M0 0 C0 0.66 0 1.32 0 2 C0.66 2 1.32 2 2 2 C1.67 2.66 1.34 3.32 1 4 C-2.3 3.34 -5.6 2.68 -9 2 C-9 1.67 -9 1.34 -9 1 C-5.846632 0.29925156 -3.27275026 0 0 0 Z " fill="#3753A1" transform="translate(664,137)"/>
<path d="M0 0 C3.33333333 1.66666667 6.66666667 3.33333333 10 5 C8.375 5.75 8.375 5.75 6 6 C2.75 4.1875 2.75 4.1875 0 2 C0 1.34 0 0.68 0 0 Z " fill="#363739" transform="translate(414,590)"/>
<path d="M0 0 C1.31554985 0.4495045 2.62738358 0.90989716 3.9375 1.375 C5.03384766 1.75785156 5.03384766 1.75785156 6.15234375 2.1484375 C8 3 8 3 9 5 C5.87709365 4.51421457 3.00419641 4.0013988 0 3 C0 2.01 0 1.02 0 0 Z " fill="#354EA0" transform="translate(700,417)"/>
<path d="M0 0 C0.66 0.66 1.32 1.32 2 2 C-1.44069624 4.29379749 -2.72290301 5 -7 5 C-7 4.34 -7 3.68 -7 3 C-4.69 2.01 -2.38 1.02 0 0 Z " fill="#60B255" transform="translate(772,395)"/>
<path d="M0 0 C0.33 0 0.66 0 1 0 C1 3.63 1 7.26 1 11 C0.01 10.67 -0.98 10.34 -2 10 C-2 8.35 -2 6.7 -2 5 C-1.34 5 -0.68 5 0 5 C0 3.35 0 1.7 0 0 Z " fill="#78AB68" transform="translate(638,294)"/>
<path d="M0 0 C-1 3 -1 3 -2.8125 4.25 C-5.33943414 5.11637742 -6.52221994 4.88492145 -9 4 C-2.25 0 -2.25 0 0 0 Z " fill="#38393C" transform="translate(454,592)"/>
<path d="M0 0 C0.33 0.99 0.66 1.98 1 3 C-2 5 -2 5 -4.6875 4.625 C-5.450625 4.41875 -6.21375 4.2125 -7 4 C-4.77810176 1.77810176 -2.91517292 1.07401108 0 0 Z " fill="#3D5B9D" transform="translate(931,592)"/>
<path d="M0 0 C0.99 0.33 1.98 0.66 3 1 C2.34 4.96 1.68 8.92 1 13 C0.67 13 0.34 13 0 13 C0 8.71 0 4.42 0 0 Z " fill="#3E5A9D" transform="translate(757,552)"/>
<path d="M0 0 C0.99 0.99 1.98 1.98 3 3 C1 5 1 5 -1.625 5.125 C-2.40875 5.08375 -3.1925 5.0425 -4 5 C-4 4.34 -4 3.68 -4 3 C-2.68 2.67 -1.36 2.34 0 2 C0 1.34 0 0.68 0 0 Z " fill="#455F9B" transform="translate(731,516)"/>
<path d="M0 0 C2.02045442 0.60183749 4.02111039 1.27306096 6 2 C6.33 2.66 6.66 3.32 7 4 C6.34 4.66 5.68 5.32 5 6 C3.31237149 4.3545622 1.6459651 2.68711423 0 1 C0 0.67 0 0.34 0 0 Z " fill="#4863A3" transform="translate(702,514)"/>
<path d="M0 0 C1.62463842 -0.05395478 3.24978541 -0.09277195 4.875 -0.125 C5.77992188 -0.14820313 6.68484375 -0.17140625 7.6171875 -0.1953125 C10 0 10 0 12 2 C7.31034294 3.11658501 4.46236469 2.80619523 0 1 C0 0.67 0 0.34 0 0 Z " fill="#4A609F" transform="translate(658,470)"/>
<path d="M0 0 C-0.33 3.3 -0.66 6.6 -1 10 C-1.33 10 -1.66 10 -2 10 C-2.33 7.03 -2.66 4.06 -3 1 C-1 0 -1 0 0 0 Z " fill="#3E5A9A" transform="translate(664,405)"/>
<path d="M0 0 C2.31 0.33 4.62 0.66 7 1 C7 1.99 7 2.98 7 4 C4.69 3.67 2.38 3.34 0 3 C0 2.01 0 1.02 0 0 Z " fill="#62B156" transform="translate(711,404)"/>
<path d="M0 0 C3.14737182 0.69941596 6.02588876 1.76078698 9 3 C9 3.66 9 4.32 9 5 C7.68428397 4.7452486 6.37239624 4.47065859 5.0625 4.1875 C4.33160156 4.03667969 3.60070312 3.88585937 2.84765625 3.73046875 C2.23792969 3.48941406 1.62820313 3.24835938 1 3 C0.67 2.01 0.34 1.02 0 0 Z " fill="#4D68A7" transform="translate(505,369)"/>
<path d="M0 0 C2.88437779 1.29299694 4.87219421 2.65941363 7 5 C4.6875 5.25 4.6875 5.25 2 5 C0.1875 3 0.1875 3 -1 1 C-0.67 0.67 -0.34 0.34 0 0 Z " fill="#4866A5" transform="translate(488,359)"/>
<path d="M0 0 C0.33 0 0.66 0 1 0 C1.33 4.29 1.66 8.58 2 13 C1.67 12.34 1.34 11.68 1 11 C0.34 11 -0.32 11 -1 11 C-0.67 7.37 -0.34 3.74 0 0 Z " fill="#4B68A4" transform="translate(469,314)"/>
<path d="M0 0 C0.66 0.33 1.32 0.66 2 1 C-0.46153846 5.8 -0.46153846 5.8 -3.1875 6.8125 C-3.785625 6.874375 -4.38375 6.93625 -5 7 C-3.70700306 4.11562221 -2.34058637 2.12780579 0 0 Z " fill="#536AA4" transform="translate(488,250)"/>
<path d="M0 0 C1.45792884 -0.05399736 2.91642712 -0.09279177 4.375 -0.125 C5.18710937 -0.14820313 5.99921875 -0.17140625 6.8359375 -0.1953125 C9 0 9 0 11 2 C4.6 3.35384615 4.6 3.35384615 1.5625 1.5625 C1.046875 1.046875 0.53125 0.53125 0 0 Z " fill="#3953AC" transform="translate(697,595)"/>
<path d="M0 0 C0.99 0.33 1.98 0.66 3 1 C4.1875 3.5625 4.1875 3.5625 5 6 C4.01 6 3.02 6 2 6 C0 3 0 3 0 0 Z " fill="#465CA1" transform="translate(758,567)"/>
<path d="M0 0 C0.99 0.495 0.99 0.495 2 1 C2.73075648 3.3140622 3.40138258 5.64828869 4 8 C3.34 8.66 2.68 9.32 2 10 C0.68373308 6.38026598 0 3.90432869 0 0 Z " fill="#2F3438" transform="translate(628,541)"/>
<path d="M0 0 C0.99 0.33 1.98 0.66 3 1 C2.67 2.32 2.34 3.64 2 5 C0.68 5 -0.64 5 -2 5 C-1.34 3.35 -0.68 1.7 0 0 Z " fill="#4A64A1" transform="translate(763,542)"/>
<path d="M0 0 C-0.33 0.66 -0.66 1.32 -1 2 C-4.375 2.125 -4.375 2.125 -8 2 C-8.66 1.34 -9.32 0.68 -10 0 C-6.30458414 -0.95024979 -3.69541586 -0.95024979 0 0 Z " fill="#304DA8" transform="translate(923,522)"/>
<path d="M0 0 C0.99 0.66 1.98 1.32 3 2 C1.02 3.32 -0.96 4.64 -3 6 C-3 4.68 -3 3.36 -3 2 C-2.01 1.34 -1.02 0.68 0 0 Z " fill="#395F96" transform="translate(661,500)"/>
<path d="M0 0 C0.66 0.99 1.32 1.98 2 3 C-2.75 4.125 -2.75 4.125 -5 3 C-5 2.34 -5 1.68 -5 1 C-3.35 0.67 -1.7 0.34 0 0 Z " fill="#3954AE" transform="translate(683,492)"/>
<path d="M0 0 C2.64 0 5.28 0 8 0 C8 0.66 8 1.32 8 2 C5.69 2.33 3.38 2.66 1 3 C0.67 2.01 0.34 1.02 0 0 Z " fill="#49639F" transform="translate(609,470)"/>
<path d="M0 0 C3 1 3 1 4 3 C5.32 2.67 6.64 2.34 8 2 C8 2.99 8 3.98 8 5 C6.02 5 4.04 5 2 5 C1.34 3.35 0.68 1.7 0 0 Z " fill="#61B355" transform="translate(760,280)"/>
<path d="M0 0 C3.68754757 0.49831724 5.60490662 1.10067643 8 4 C7.01 4.495 7.01 4.495 6 5 C3.96855359 4.06553465 1.96466413 3.06775224 0 2 C0 1.34 0 0.68 0 0 Z " fill="#5BBC4E" transform="translate(745,270)"/>
<path d="M0 0 C0.763125 0.20625 1.52625 0.4125 2.3125 0.625 C-0.67396769 2.61597846 -3.28437262 3.56624926 -6.6875 4.625 C-5.39900677 0.7595203 -4.17039106 -0.58191503 0 0 Z " fill="#6FA664" transform="translate(715.6875,268.375)"/>
<path d="M0 0 C3.465 1.98 3.465 1.98 7 4 C5.1875 4.625 5.1875 4.625 3 5 C2.01 4.34 1.02 3.68 0 3 C0 2.01 0 1.02 0 0 Z " fill="#2F50A9" transform="translate(938,578)"/>
<path d="M0 0 C3.24208567 0.35049575 4.61527704 0.56221181 6.8125 3.0625 C7.204375 3.701875 7.59625 4.34125 8 5 C5.07120629 4.37240135 2.63904371 3.41377341 0 2 C0 1.34 0 0.68 0 0 Z " fill="#385D9D" transform="translate(922,523)"/>
<path d="M0 0 C2.31 0.33 4.62 0.66 7 1 C5 3 5 3 2.375 3.125 C1.59125 3.08375 0.8075 3.0425 0 3 C0 2.01 0 1.02 0 0 Z " fill="#385CA4" transform="translate(770,521)"/>
<path d="M0 0 C-2.97 0.66 -5.94 1.32 -9 2 C-7 -1 -7 -1 -5.0625 -1.8125 C-3 -2 -3 -2 0 0 Z " fill="#69AE5C" transform="translate(746,358)"/>
<path d="M0 0 C0.33 0.99 0.66 1.98 1 3 C-0.98 4.32 -2.96 5.64 -5 7 C-5 6.01 -5 5.02 -5 4 C-2.5 1.8125 -2.5 1.8125 0 0 Z " fill="#60B352" transform="translate(787,265)"/>
<path d="M0 0 C0.99 0 1.98 0 3 0 C3 1.65 3 3.3 3 5 C2.01 5.33 1.02 5.66 0 6 C0 4.02 0 2.04 0 0 Z " fill="#445FA1" transform="translate(613,189)"/>
<path d="M0 0 C1.65 0 3.3 0 5 0 C5.33 1.32 5.66 2.64 6 4 C4.125 3.6875 4.125 3.6875 2 3 C1.34 2.01 0.68 1.02 0 0 Z " fill="#3E59A8" transform="translate(680,145)"/>
<path d="" fill="#000000" transform="translate(0,0)"/>
<path d="" fill="#00FFFF" transform="translate(0,0)"/>
<path d="" fill="#0000FF" transform="translate(0,0)"/>
</svg>
